<?xml version="1.0" standalone="no"?>
<!DOCTYPE svg PUBLIC "-//W3C//DTD SVG 1.1//EN" "http://www.w3.org/Graphics/SVG/1.1/DTD/svg11.dtd" >
<svg xmlns="http://www.w3.org/2000/svg">
<metadata>Generated by IcoMoon</metadata>
<defs>
<font id="icomoon" horiz-adv-x="1024">
<font-face units-per-em="1024" ascent="960" descent="-64" />
<missing-glyph horiz-adv-x="1024" />
<glyph unicode="&#x20;" horiz-adv-x="512" d="" />
<glyph unicode="&#xe900;" glyph-name="address" d="M512 960c-208.583 0-378.271-169.687-378.271-378.27 0-68.667 30.796-142.519 32.086-145.634 9.946-23.607 29.572-60.279 43.724-81.775l259.359-392.977c10.615-16.111 26.325-25.344 43.102-25.344s32.486 9.233 43.102 25.323l259.379 392.998c14.174 21.495 33.779 58.167 43.725 81.775 1.289 3.093 32.064 76.945 32.064 145.634 0 208.583-169.69 378.27-378.27 378.27zM817.173 453.363c-8.879-21.163-27.145-55.275-39.851-74.543l-259.383-392.998c-5.116-7.765-6.741-7.765-11.857 0l-259.383 392.998c-12.706 19.268-30.974 53.402-39.852 74.564-0.378 0.913-28.615 68.89-28.615 128.345 0 184.040 149.728 333.768 333.769 333.768 184.038 0 333.769-149.728 333.769-333.768 0-59.545-28.305-127.701-28.595-128.367zM512 781.969c-110.432 0-200.26-89.85-200.26-200.261s89.828-200.259 200.26-200.259c110.434 0 200.26 89.847 200.26 200.259 0 110.411-89.826 200.261-200.26 200.261zM512 425.95c-85.867 0-155.758 69.867-155.758 155.758 0 85.89 69.891 155.759 155.758 155.759s155.759-69.869 155.759-155.759c0-85.891-69.892-155.758-155.759-155.758z" />
<glyph unicode="&#xe901;" glyph-name="arrow_down" d="M537.6 960c0 14.139-11.462 25.6-25.6 25.6s-25.6-11.461-25.6-25.6h51.2zM493.899-47.968c9.998-9.998 26.204-9.998 36.202 0l162.918 162.915c9.998 9.998 9.998 26.208 0 36.205s-26.208 9.998-36.205 0l-144.814-144.814-144.814 144.814c-9.998 9.998-26.208 9.998-36.205 0s-9.998-26.208 0-36.205l162.918-162.915zM486.4 960v-989.867h51.2v989.867h-51.2z" />
<glyph unicode="&#xe902;" glyph-name="arrow_left" d="M1024 422.4c14.138 0 25.6 11.462 25.6 25.6s-11.462 25.6-25.6 25.6v-51.2zM16.031 466.101c-9.997-9.998-9.997-26.204 0-36.202l162.917-162.918c9.997-9.998 26.207-9.998 36.204 0s9.997 26.208 0 36.205l-144.815 144.814 144.815 144.814c9.997 9.998 9.997 26.208 0 36.205s-26.207 9.997-36.204 0l-162.917-162.918zM1024 473.6h-989.867v-51.2h989.867v51.2z" />
<glyph unicode="&#xe903;" glyph-name="arrow_right" d="M0 473.6c-14.139 0-25.6-11.462-25.6-25.6s11.461-25.6 25.6-25.6v51.2zM1007.968 429.899c9.998 9.998 9.998 26.204 0 36.202l-162.915 162.918c-9.998 9.997-26.208 9.997-36.205 0s-9.998-26.208 0-36.205l144.814-144.814-144.814-144.814c-9.998-9.998-9.998-26.208 0-36.205s26.208-9.998 36.205 0l162.915 162.918zM0 422.4h989.867v51.2h-989.867v-51.2z" />
<glyph unicode="&#xe904;" glyph-name="arrow_up" d="M486.4-64c0-14.138 11.462-25.6 25.6-25.6s25.6 11.462 25.6 25.6h-51.2zM530.101 943.969c-9.998 9.997-26.204 9.997-36.202 0l-162.918-162.917c-9.998-9.997-9.998-26.207 0-36.204s26.208-9.997 36.205 0l144.814 144.815 144.814-144.815c9.998-9.997 26.208-9.997 36.205 0s9.998 26.207 0 36.204l-162.918 162.917zM537.6-64v989.867h-51.2v-989.867h51.2z" />
<glyph unicode="&#xe905;" glyph-name="button_back" d="M498.761 418.77c2.244 0 4.063 1.82 4.063 4.063s-1.82 4.063-4.063 4.063v-8.127zM5.254 425.707c-1.587-1.587-1.587-4.16 0-5.747l25.86-25.86c1.587-1.587 4.16-1.587 5.747 0s1.587 4.159 0 5.747l-22.987 22.986 22.987 22.986c1.587 1.587 1.587 4.16 0 5.747s-4.16 1.586-5.747 0l-25.86-25.86zM498.761 426.897h-490.634v-8.127h490.634v8.127zM353.607 847.723l25.139-81.716-11.124-3.072-22.128 71.929-39.483-10.901 5.116-20.499c4.39-17.216 6.42-30.814 6.090-40.793s-4.515-16.079-12.559-18.3c-2.193-0.605-4.984-0.927-8.373-0.964l-2.132 9.693c2.007 0.105 3.377 0.258 4.108 0.46 4.283 1.182 6.915 4.044 7.898 8.585s0.948 9.813-0.106 15.815c-1.053 6.002-2.784 13.839-5.193 23.511l-7.575 29.596 60.321 16.654zM465.060 877.2l11.429-1.596-10.446-67.134 66.949 59.243 10.142-1.416-13.145-84.48-11.429 1.596 10.446 67.134-66.788-59.266-10.303 1.438 13.145 84.48zM637.12 758.325c-7.434 4.021-13.154 9.208-17.162 15.56-3.912 6.301-5.829 13.184-5.753 20.649 0.132 7.558 2.353 14.911 6.66 22.057s9.835 12.647 16.583 16.503c6.749 3.856 13.98 5.79 21.696 5.8 7.812-0.041 15.434-2.073 22.868-6.094 6.481-3.506 11.492-7.878 15.033-13.116 3.692-5.197 5.589-10.962 5.691-17.293l-10.598-0.913c-0.297 4.96-1.82 9.353-4.569 13.178-2.693 3.919-6.28 7.089-10.759 9.513-5.433 2.939-11.068 4.388-16.907 4.346-5.687 0-11.085-1.511-16.192-4.532-5.012-3.073-9.196-7.393-12.552-12.962-3.413-5.661-5.242-11.317-5.488-16.968-0.096-5.609 1.274-10.78 4.108-15.514 2.986-4.692 7.195-8.507 12.628-11.446 4.48-2.423 9.157-3.785 14.032-4.084s9.643 0.692 14.302 2.97l4.556-9.11c-5.807-3.135-12.039-4.563-18.696-4.285-6.602 0.371-13.095 2.284-19.48 5.738zM820.2 722.835l-22.236 23.493-57.36-48.716-7.932 8.382 57.36 48.716-22.233 23.493 7.805 6.629 52.398-55.368-7.802-6.628zM890.303 638.301c4.104-10.377 4.608-19.279 1.487-26.707-3.007-7.392-9.671-12.921-19.984-16.586l-49.924-17.748-4.072 10.276 12.556 4.464c-5.144 0.93-9.826 3.345-14.052 7.245-4.184 3.799-7.553 8.923-10.107 15.371-3.512 8.865-4.161 16.68-1.947 23.442s6.842 11.397 13.891 13.901c6.835 2.432 13.312 1.973 19.407-1.374 6.144-3.448 11.329-10.512 15.563-21.191l9.996-25.237 4.901 1.742c6.94 2.467 11.443 6.251 13.499 11.349 2.154 5.135 1.78 11.379-1.13 18.734-1.999 5.037-4.779 9.565-8.355 13.582-3.47 4.054-7.339 7.216-11.622 9.488l6.201 7.721c5.071-2.796 9.639-6.689 13.71-11.677 4.177-4.952 7.501-10.551 9.98-16.798zM815.445 616.003c2.389-6.044 5.827-10.743 10.297-14.095 4.575-3.316 9.939-5.088 16.083-5.317l13.174 4.682-9.874 24.934c-5.388 13.601-12.881 18.695-22.479 15.284-4.697-1.669-7.729-4.758-9.086-9.263-1.259-4.47-0.634-9.878 1.885-16.226zM925.615 462.104l-1.317 32.319-75.207-2.751-0.463 11.531 75.199 2.751-1.317 32.319 10.24 0.375 3.105-76.168-10.24-0.375zM895.301 351.941c-3.86-10.015-8.964-16.87-15.319-20.565-6.388-3.798-13.743-4.301-22.065-1.511-8.631 2.894-14.198 7.958-16.693 15.193-2.536 7.133-1.764 16.012 2.316 26.635l12.215 32.228 81.067-27.18-4.039-10.811-28.363 9.508-9.118-23.497zM852.090 369.511c-2.869-7.375-3.462-13.458-1.788-18.248 1.747-4.925 5.648-8.403 11.711-10.436 5.957-1.998 11.077-1.602 15.36 1.19 4.275 2.791 7.875 7.925 10.785 15.402l8.094 20.756-36.059 12.091-8.103-20.756zM830.594 152.308l-9.574-6.446-22.727 30.293-44.627-30.050 22.729-30.296-9.572-6.445-51.311 68.389 9.573 6.446 22.631-30.162 44.627 30.050-22.632 30.162 9.573 6.446 51.311-68.386zM651.483 46.633c-10.859-2.584-19.909-1.837-27.149 2.235-7.213 3.966-12.219 11.24-15.019 21.821l-13.557 51.224 10.754 2.552 3.41-12.889c1.394 4.901 4.249 9.143 8.567 12.727 4.211 3.56 9.691 6.144 16.438 7.745 9.278 2.202 17.24 1.755 23.886-1.341s10.927-8.257 12.84-15.49c1.857-7.014 0.824-13.271-3.1-18.773-4.029-5.518-11.631-9.606-22.807-12.264l-26.409-6.274 1.33-5.022c1.885-7.127 5.316-12.044 10.293-14.759 5.005-2.82 11.354-3.316 19.050-1.487 5.271 1.252 10.096 3.34 14.475 6.274 4.406 2.828 7.947 6.177 10.621 10.037l7.265-7.119c-3.274-4.567-7.614-8.493-13.019-11.776-5.378-3.397-11.335-5.868-17.87-7.42zM635.516 122.839c-6.325-1.503-11.381-4.21-15.166-8.119-3.757-4.007-6.021-8.997-6.794-14.97l3.577-13.515 26.093 6.201c14.233 3.381 20.046 9.988 17.44 19.838-1.275 4.819-4.132 8.208-8.571 10.159-4.411 1.845-9.937 1.983-16.579 0.406zM480.948 63.439c-5.885 1.999-10.256 4.892-13.115 8.655-2.966 3.787-4.177 8.151-3.636 13.109 0.542 4.949 2.749 9.2 6.624 12.727 3.766 3.551 8.678 6.103 14.737 7.68 6.046 1.463 12.573 1.845 19.582 1.146 6.146-0.61 12.090-2.072 17.831-4.389 5.73-2.43 10.617-5.583 14.661-9.468l-4.818-8.176c-3.564 3.291-7.845 6.006-12.844 8.143-4.999 2.129-10.14 3.462-15.423 3.99-7.871 0.78-14.446-0.033-19.723-2.446-5.397-2.511-8.372-6.298-8.926-11.362-0.495-4.519 1.171-8.225 4.997-11.11 3.815-2.999 9.28-4.852 16.397-5.559l14.556-1.455-0.918-8.403-13.909 1.39c-6.362 0.634-11.613-0.041-15.753-2.024-4.153-2.089-6.453-5.177-6.901-9.273-0.494-4.527 1.328-8.298 5.465-11.321 4.031-3.023 9.55-4.876 16.559-5.575 9.165-0.918 18.475 0.496 27.931 4.234l2.263-9.208c-10.712-4.267-21.514-5.86-32.404-4.771-6.469 0.642-12.186 2.194-17.15 4.649-5.083 2.365-8.892 5.413-11.427 9.151-2.642 3.747-3.716 7.883-3.222 12.402 0.471 4.315 2.399 7.989 5.783 11.020 3.276 3.048 7.536 5.128 12.78 6.242zM332.858 47.202c-10.018 4.925-16.35 11.166-18.994 18.741-2.697 7.469-1.419 16.010 3.834 25.608l25.435 46.486 9.921-4.868-6.398-11.695c4.467 2.747 9.584 4.096 15.352 4.039 5.671-0.008 11.618-1.544 17.844-4.6 8.559-4.202 14.276-9.541 17.149-16.018s2.515-12.995-1.074-19.554c-3.485-6.372-8.628-10.354-15.429-11.963-6.899-1.56-15.503 0.195-25.813 5.258l-24.366 11.963-2.497-4.559c-3.537-6.469-4.367-12.272-2.492-17.408 1.824-5.242 6.285-9.598 13.386-13.084 4.863-2.389 9.974-3.877 15.332-4.454 5.307-0.683 10.319-0.431 15.037 0.756l0.533-9.85c-5.659-1.325-11.68-1.503-18.063-0.536-6.435 0.861-12.668 2.779-18.699 5.738zM373.877 113.713c-5.836 2.869-11.547 4.047-17.134 3.535-5.639-0.61-10.832-2.885-15.579-6.827l-6.71-12.264 24.074-11.817c13.131-6.453 22.14-5.209 27.030 3.73 2.393 4.372 2.588 8.68 0.588 12.914-2.051 4.145-6.142 7.721-12.269 10.728zM205.319 223.692l24.654 18.328 6.947-8.386-16.566-12.316 48.837-58.955 16.566 12.316 6.947-8.386-24.653-18.329-3.111 3.755c-3.925 4.228-9.804 4.711-17.64 1.448s-17.866-8.967-30.089-17.113l-23.684-16.189-40.231 48.567 60.525 44.996-8.502 10.264zM210.994 144.581c10.086 6.823 18.786 12.011 26.102 15.562 7.229 3.486 13.262 4.6 18.098 3.342l-34.010 41.056-52.308-38.887 26.234-31.664 15.883 10.591z" />
<glyph unicode="&#xe906;" glyph-name="button_catalog" d="M704.221 144.344c7.893 3.023 15.69 4.037 23.391 3.043 7.6-1.032 14.451-3.918 20.552-8.659 6.144-4.836 10.832-11.101 14.064-18.79 3.231-7.696 4.357-15.262 3.375-22.715s-3.846-14.060-8.591-19.814c-4.847-5.803-11.218-10.216-19.111-13.239-6.881-2.633-13.57-3.625-20.066-2.983-6.556 0.504-12.472 2.698-17.749 6.599l5.778 8.468c4.267-2.885 8.824-4.502 13.67-4.852 4.887-0.447 9.708 0.236 14.464 2.064 5.769 2.202 10.434 5.502 13.998 9.882 3.504 4.242 5.586 9.208 6.245 14.913 0.557 5.665-0.423 11.492-2.942 17.489-2.56 6.095-6.091 11.004-10.594 14.726-4.562 3.592-9.665 5.811-15.31 6.664-5.704 0.715-11.44-0.033-17.209-2.243-4.756-1.82-8.759-4.454-12.009-7.899s-5.373-7.623-6.367-12.532l-10.312 2.316c0.996 6.298 3.66 11.841 7.991 16.628 4.374 4.689 9.95 8.338 16.73 10.932zM536.169 19.944l2.074 85.471 10.563-0.236-1.64-67.592 36 56.426 5.2-0.114 33.221-58.124 1.644 67.763 10.563-0.236-2.073-85.471-11.7 0.26-34.744 62.383-38.381-60.765-10.725 0.236zM458.416 109.682c7.783-2.69 14.143-6.843 19.083-12.442 4.901-5.713 7.97-12.272 9.208-19.692s0.377-15.035-2.584-22.829c-2.961-7.802-7.406-14.173-13.336-19.115s-12.672-8.054-20.226-9.33c-7.554-1.284-15.222-0.585-23.004 2.113-7.783 2.69-14.144 6.843-19.083 12.451-4.939 5.599-7.977 12.101-9.112 19.48-1.239 7.42-0.377 15.035 2.584 22.829 2.961 7.802 7.406 14.173 13.336 19.115 5.828 4.974 12.537 8.151 20.13 9.541 7.554 1.276 15.223 0.577 23.005-2.121zM454.783 100.108c-5.735 1.991-11.336 2.495-16.803 1.52-5.608-1.040-10.596-3.495-14.963-7.371s-7.705-8.858-10.012-14.929c-2.307-6.079-3.085-11.947-2.332-17.595s2.953-10.533 6.599-14.661c3.506-4.194 8.126-7.282 13.861-9.265s11.406-2.454 17.014-1.414c5.467 0.975 10.436 3.381 14.906 7.217 4.367 3.877 7.705 8.85 10.012 14.929s3.085 11.947 2.332 17.595c-0.856 5.681-3.036 10.614-6.541 14.807-3.647 4.129-8.337 7.184-14.072 9.167zM287.684 101.238l27.086-17.676 43.812 61.185 9.664-6.311-43.812-61.188 27.087-17.676-5.962-8.322-63.837 41.659 5.962 8.33zM196.618 158.666c-4.836 6.396-7.698 13.232-8.585 20.509-0.976 7.216 0.145 14.168 3.366 20.858s8.311 12.433 15.27 17.229c7.049 4.857 14.406 7.692 22.070 8.505s14.974-0.33 21.928-3.426c6.8-3.070 12.651-7.847 17.553-14.329 4.182-5.532 6.813-11.344 7.891-17.438 0.923-6.068 0.189-12.097-2.205-18.085l39.214 27.025 6.959-9.205-96.361-66.414-6.666 8.818 13.919 9.598c-6.731-0.439-13.045 0.74-18.941 3.508-5.962 2.859-11.1 7.141-15.413 12.846zM260.278 201.553c-3.595 4.754-7.977 8.307-13.149 10.659-5.261 2.291-10.805 3.072-16.632 2.343-5.893-0.643-11.515-2.809-16.869-6.498s-9.232-8.073-11.638-13.148c-2.559-5.051-3.529-10.321-2.908-15.809s2.729-10.61 6.323-15.363c3.66-4.84 8.12-8.406 13.381-10.697 5.195-2.205 10.739-2.986 16.631-2.343 5.738 0.668 11.284 2.847 16.638 6.536s9.309 8.060 11.869 13.111c2.494 5.137 3.464 10.407 2.908 15.809-0.71 5.427-2.895 10.56-6.554 15.401zM150.326 326.377l21.951-68.065c8.325 3.125 14.191 8.407 17.597 15.844 3.302 7.407 3.506 15.596 0.613 24.569-1.629 5.053-4.010 9.434-7.141 13.143-3.235 3.677-7.118 6.545-11.651 8.599l5.178 8.297c5.53-2.326 10.32-5.886 14.37-10.679 4.017-4.691 7.073-10.284 9.168-16.781 2.694-8.354 3.321-16.299 1.882-23.835-1.577-7.464-4.953-13.933-10.131-19.406s-11.769-9.388-19.774-11.742c-8.004-2.354-15.727-2.761-23.166-1.221-7.472 1.642-13.94 4.934-19.404 9.876-5.497 5.045-9.459 11.332-11.887 18.861s-2.839 14.802-1.233 21.823c1.605 7.021 5.030 13.165 10.274 18.433 5.14 5.237 11.765 9.048 19.873 11.432l3.481 0.853zM127.443 276.632c2.527-7.838 7.203-13.689 14.027-17.554 6.686-3.793 14.2-4.857 22.542-3.196l-18.609 57.701c-7.876-3.106-13.444-8.074-16.705-14.903-3.397-6.758-3.816-14.107-1.255-22.048zM94.395 427.72l1.568-32.307 75.183 3.326 0.559-11.527-75.182-3.326 1.568-32.307-10.229-0.453-3.696 76.141 10.23 0.453zM118.157 511.907c2.953 10.316 7.422 17.572 13.408 21.766 6.016 4.298 13.279 5.379 21.793 3.243 8.828-2.216 14.802-6.843 17.921-13.88 3.148-6.933 3.159-15.871 0.033-26.814l-9.304-33.183-82.924 20.812 3.063 11.127 29.008-7.28 7.002 24.21zM162.626 497.731c2.205 7.6 2.263 13.729 0.174 18.386-2.165 4.788-6.348 7.96-12.549 9.516-6.096 1.53-11.148 0.731-15.154-2.395s-7.127-8.543-9.361-16.247l-6.226-21.39 36.89-9.258 6.226 21.389zM193.077 651.514l-12.605-14.885 30.106-23.242-7.458-8.807-67.674 52.247 7.458 8.807 29.72-22.945 12.71 15.008-10.287 45.892 8.088 9.551 11.065-51.005 58.185 0.618-8.823-10.419-50.484-0.821zM243.081 774.793c9.39 6.033 18.215 8.358 26.475 6.973 8.199-1.295 15.449-6.416 21.754-15.362l30.527-43.311-9.299-5.974-7.678 10.894c0.371-5.037-0.867-9.951-3.716-14.741-2.758-4.732-7.054-8.971-12.889-12.72-8.022-5.154-15.715-7.394-23.077-6.719s-13.197 4.067-17.505 10.178c-4.183 5.934-5.365 12.123-3.549 18.565 1.907 6.502 7.693 12.857 17.357 19.065l22.837 14.672-2.996 4.251c-4.245 6.023-9.192 9.471-14.841 10.346-5.712 0.963-11.895-0.694-18.55-4.97-4.558-2.928-8.404-6.493-11.536-10.693-3.195-4.111-5.391-8.418-6.589-12.919l-9.339 4.23c1.524 5.354 4.277 10.468 8.259 15.343 3.919 4.963 8.705 9.26 14.357 12.891zM284.516 708.959c5.47 3.514 9.322 7.726 11.557 12.637 2.172 4.998 2.593 10.416 1.261 16.252l-8.053 11.425-22.564-14.496c-12.308-7.907-15.527-16.023-9.659-24.349 2.871-4.074 6.745-6.282 11.622-6.623 4.814-0.253 10.093 1.466 15.836 5.156zM385.75 837.34l-30.643-10.355 26.159-70.563-10.933-3.695-26.159 70.563-30.643-10.355-3.56 9.601 72.219 24.405 3.56-9.601zM467.054 870.113c11.153 0.411 19.822-2.089 26.006-7.5 6.179-5.302 9.49-13.421 9.932-24.356l2.141-52.945-11.045-0.407-0.539 13.317c-2.419-4.535-6.123-8.141-11.112-10.819-4.88-2.674-10.786-4.139-17.716-4.394-9.529-0.351-17.202 1.643-23.016 5.983s-8.873 10.245-9.175 17.715c-0.293 7.254 2.069 13.197 7.088 17.827 5.127 4.635 13.429 7.164 24.908 7.587l27.125 1-0.21 5.197c-0.297 7.362-2.58 12.863-6.849 16.5-4.272 3.747-10.361 5.474-18.266 5.182-5.414-0.199-10.575-1.311-15.481-3.335-4.911-1.916-9.090-4.51-12.537-7.782l-5.546 8.416c4.183 3.841 9.266 6.847 15.252 9.020 5.981 2.28 12.328 3.544 19.042 3.792zM466.139 792.17c6.497 0.24 12.015 1.907 16.553 5.001 4.533 3.204 7.823 7.662 9.869 13.376l-0.565 13.967-26.8-0.988c-14.619-0.539-21.723-5.897-21.311-16.074 0.202-4.981 2.256-8.862 6.164-11.646 3.904-2.675 9.267-3.888 16.089-3.636zM644.212 858.786l-25.176-81.705-11.103 3.148 22.161 71.919-39.407 11.171-7.317-19.883c-6.067-16.747-12.069-29.234-18.004-37.46s-12.917-11.201-20.945-8.926c-2.189 0.621-4.72 1.789-7.592 3.504l3.702 9.253c1.749-0.946 2.988-1.522 3.718-1.729 4.274-1.212 8.112-0.16 11.514 3.154s6.361 7.768 8.877 13.36c2.517 5.592 5.504 13.078 8.961 22.457l10.405 28.804 60.206-17.067zM698.484 753.227c-6.832 4.6-11.894 10.227-15.188 16.882-3.229 6.743-4.453 13.831-3.671 21.267s3.651 14.507 8.609 21.219c4.958 6.711 10.973 11.665 18.047 14.864s14.446 4.432 22.118 3.704c7.672-0.729 14.924-3.393 21.754-7.993s11.894-10.228 15.187-16.883c3.294-6.655 4.505-13.67 3.634-21.045-0.782-7.435-3.651-14.507-8.609-21.219s-10.974-11.665-18.047-14.864c-6.984-3.258-14.343-4.567-22.080-3.925-7.672 0.728-14.923 3.393-21.753 7.993zM704.568 761.463c5.034-3.389 10.333-5.326 15.897-5.81 5.718-0.458 11.214 0.605 16.487 3.188s9.842 6.49 13.705 11.719c3.864 5.23 6.185 10.649 6.963 16.259s-0.049 10.865-2.484 15.768c-2.28 4.929-5.938 9.088-10.971 12.477s-10.409 5.313-16.128 5.77c-5.564 0.484-11.028-0.535-16.391-3.057-5.274-2.584-9.842-6.49-13.705-11.719s-6.185-10.649-6.964-16.259c-0.689-5.669 0.107-10.969 2.388-15.898 2.435-4.903 6.169-9.049 11.202-12.438zM865.386 718.172l-32.703 36.391-58.218-47.686-7.713 8.584 66.143 54.175 40.407-44.976-7.916-6.489zM516.23 431.746c-2.244 0-4.063-1.82-4.063-4.063s1.82-4.063 4.063-4.063v8.127zM1018.75 424.809c1.585 1.587 1.585 4.16 0 5.747l-25.86 25.859c-1.593 1.587-4.161 1.587-5.754 0-1.585-1.586-1.585-4.159 0-5.747l22.991-22.986-22.991-22.986c-1.585-1.587-1.585-4.16 0-5.747 1.593-1.587 4.161-1.587 5.754 0l25.86 25.859zM516.23 423.619h499.643v8.127h-499.643v-8.127z" />
<glyph unicode="&#xe907;" glyph-name="button_forward" d="M526.233 417.191c-2.244 0-4.063-1.82-4.063-4.063s1.82-4.063 4.063-4.063v8.127zM1016.507 410.253c1.585 1.587 1.585 4.16 0 5.747l-25.86 25.86c-1.585 1.587-4.161 1.587-5.746 0s-1.585-4.159 0-5.747l22.983-22.986-22.983-22.986c-1.585-1.587-1.585-4.16 0-5.747s4.161-1.587 5.746 0l25.86 25.859zM526.233 409.064h487.397v8.127h-487.397v-8.127zM771.547 90.673l-45.188 72.581 10.025 5.715 39.776-63.887 35.586 20.285-10.18 18.5c-8.64 15.515-14.067 28.126-16.283 37.83s0.301 16.623 7.55 20.755c1.976 1.126 4.606 2.127 7.889 3.001l4.535-8.819c-1.924-0.598-3.215-1.085-3.874-1.46-3.86-2.2-5.691-5.612-5.491-10.233s1.573-9.697 4.121-15.224c2.549-5.527 6.222-12.656 11.020-21.387l14.88-26.668-54.366-30.988zM673.357 36.133l-11.479-1.187-7.645 67.511-49.102-73.395-10.186-1.057-9.622 84.951 11.479 1.195 7.645-67.511 48.94 73.379 10.347 1.073 9.622-84.959zM474.862 111.738c8.182-2.121 15.022-5.803 20.521-11.028 5.395-5.209 9.027-11.467 10.897-18.773 1.84-7.42 1.624-15.141-0.65-23.17s-6.146-14.742-11.619-20.155c-5.473-5.404-11.91-9.053-19.312-10.939-7.508-1.861-15.352-1.723-23.533 0.398-7.132 1.845-13.080 4.901-17.842 9.159-4.897 4.177-8.217 9.346-9.963 15.506l9.934 3.47c1.575-4.779 4.181-8.696 7.815-11.768 3.605-3.17 7.873-5.396 12.802-6.672 5.979-1.552 11.765-1.601 17.358-0.138 5.458 1.382 10.245 4.169 14.36 8.363 4.011 4.218 6.901 9.46 8.673 15.718 1.801 6.355 2.085 12.329 0.85 17.904-1.369 5.502-4.029 10.224-7.982 14.157-4.087 3.86-9.119 6.567-15.098 8.111-4.93 1.284-9.774 1.471-14.53 0.577-4.757-0.886-9.075-3.015-12.953-6.372l-6.745 7.786c4.758 4.478 10.367 7.387 16.829 8.737 6.432 1.243 13.162 0.951 20.189-0.87zM289.675 102.506l27.259-17.416 43.064 61.718 9.725-6.211-43.063-61.716 27.259-17.416-5.86-8.395-64.243 41.033 5.86 8.403zM193.185 163.945c-6.589 9.009-9.302 17.486-8.138 25.431 1.074 7.886 6.157 14.872 15.251 20.962l44.029 29.482 6.525-8.921-11.075-7.416c5.226 0.373 10.379-0.803 15.457-3.527 5.014-2.636 9.567-6.754 13.661-12.351 5.63-7.697 8.217-15.085 7.762-22.166s-3.789-12.7-10.002-16.86c-6.033-4.039-12.43-5.196-19.192-3.469-6.827 1.813-13.63 7.356-20.411 16.626l-16.025 21.91-4.322-2.894c-6.123-4.1-9.544-8.867-10.265-14.3-0.81-5.494 1.12-11.433 5.79-17.818 3.199-4.372 7.035-8.059 11.508-11.057 4.384-3.058 8.936-5.157 13.658-6.294l-4.087-8.995c-5.621 1.452-11.032 4.083-16.235 7.895-5.293 3.752-9.923 8.34-13.889 13.762zM260.276 203.984c-3.838 5.248-8.348 8.938-13.531 11.071-5.271 2.073-10.92 2.46-16.946 1.161l-11.615-7.777 15.833-21.647c8.637-11.807 17.186-14.877 25.65-9.209 4.142 2.773 6.308 6.504 6.5 11.193 0.102 4.628-1.862 9.698-5.892 15.208zM120.117 330.286l9.667-30.867 72.342 20.742 3.449-11.013-72.342-20.742 9.668-30.867-9.843-2.822-22.784 72.746 9.843 2.823zM119.883 443.218c1.059 10.677 4.155 18.579 9.288 23.706 5.144 5.235 12.089 7.496 20.838 6.785 9.072-0.738 15.77-4.327 20.092-10.767 4.332-6.332 5.94-15.159 4.824-26.484l-3.215-34.31-85.214 6.932 1.022 11.495 29.808-2.424 2.556 25.068zM166.12 436.522c0.809 7.87-0.23 13.935-3.114 18.191-2.983 4.374-7.661 6.819-14.034 7.338-6.264 0.51-11.086-1.109-14.465-4.857s-5.478-9.611-6.296-17.589l-2.297-22.154 37.909-3.083 2.297 22.154zM196.257 666.687c9.574 7.268 18.842 7.487 27.804 0.655 5.947-4.532 8.746-10.137 8.399-16.815s-4.022-14.221-11.025-22.632l-24.856-29.854-67.997 51.827 24.127 28.98c6.24 7.495 12.637 12.216 19.189 14.164s12.629 0.788 18.231-3.482c3.706-2.824 6.062-6.254 7.070-10.289 0.991-3.886 0.677-8.070-0.943-12.553zM166.008 635.43l16.432 19.736c4.229 5.079 6.462 9.707 6.698 13.883 0.306 4.259-1.437 7.834-5.229 10.724s-7.78 3.684-11.964 2.381c-4.115-1.22-8.287-4.37-12.516-9.449l-16.432-19.736 23.011-17.538zM213.884 633.038c4.714 5.663 7.302 10.633 7.764 14.909s-1.334 7.958-5.384 11.045c-4.050 3.087-8.099 4.063-12.143 2.927-4.132-1.071-8.52-4.396-13.165-9.976l-18.096-21.735 23.657-18.031 17.368 20.861zM314.198 819.781l40.153-75.48-10.376-5.053-35.343 66.44-48.224-23.485 35.344-66.44-10.376-5.053-40.153 75.48 68.975 33.59zM493.096 824.497l-71.36-4.749c1.293-8.819 5.222-15.779 11.785-20.881 6.556-4.993 14.537-7.177 23.944-6.551 5.297 0.353 10.096 1.595 14.395 3.727 4.292 2.241 7.925 5.306 10.902 9.196l7.029-7.026c-3.454-4.791-7.96-8.566-13.518-11.325-5.449-2.752-11.58-4.354-18.391-4.807-8.758-0.583-16.676 0.736-23.754 3.957-6.979 3.337-12.6 8.176-16.863 14.516s-6.697 13.672-7.302 21.993c-0.605 8.322 0.637 15.898 3.725 22.728 3.197 6.837 7.797 12.302 13.801 16.394 6.112 4.098 13.115 6.411 21.007 6.936s15.108-0.841 21.646-4.098c6.538-3.257 11.83-8.063 15.878-14.418 4.040-6.247 6.366-13.586 6.979-22.015l0.097-3.577zM449.215 858.717c-8.217-0.547-14.944-3.656-20.182-9.325-5.137-5.555-7.778-12.572-7.921-21.052l60.493 4.025c-1.369 8.38-5.054 14.976-11.054 19.789-5.899 4.929-13.011 7.117-21.337 6.563zM637.954 863.812c7.547-2.71 13.708-6.878 18.482-12.504 4.814-5.526 7.747-11.988 8.802-19.387s0.039-15.032-3.047-22.901c-3.126-7.969-7.629-14.408-13.509-19.317s-12.553-7.98-20.018-9.213c-7.322-1.169-14.808-0.38-22.457 2.366-6.527 2.343-11.928 5.778-16.203 10.305-4.133 4.591-6.874 10.064-8.221 16.417l-17.388-44.337-10.862 3.899 42.727 108.951 10.403-3.735-6.172-15.737c5.321 4.074 11.187 6.571 17.597 7.491 6.513 0.884 13.135 0.118 19.866-2.298zM609.179 792.664c5.609-2.014 11.203-2.584 16.781-1.709 5.618 0.975 10.632 3.376 15.041 7.202 4.511 3.789 7.953 8.71 10.327 14.763s3.144 11.876 2.313 17.468c-0.69 5.656-2.816 10.62-6.376 14.891s-8.146 7.413-13.755 9.426c-5.712 2.050-11.376 2.588-16.994 1.612-5.516-1.012-10.529-3.413-15.041-7.201-4.369-3.725-7.741-8.615-10.115-14.667s-3.215-11.908-2.525-17.565c0.792-5.693 2.918-10.657 6.377-14.89 3.6-4.17 8.255-7.28 13.967-9.331zM797.221 730.347l-52.912 48.115c-5.781-6.741-8.333-14.15-7.658-22.226 0.752-7.999 4.615-15.17 11.589-21.513 3.929-3.572 8.185-6.199 12.771-7.881 4.662-1.605 9.493-2.194 14.494-1.768l-0.459-9.678c-6.013-0.678-11.984 0.070-17.913 2.242-5.849 2.099-11.298 5.446-16.349 10.038-6.494 5.905-10.968 12.461-13.423 19.667-2.297 7.211-2.52 14.437-0.668 21.678s5.718 13.822 11.598 19.741c5.88 5.92 12.472 10.021 19.776 12.306 7.383 2.211 14.698 2.509 21.944 0.895 7.326-1.687 13.916-5.192 19.769-10.514s9.805-11.404 11.859-18.246c2.050-6.842 2.075-13.811 0.061-20.906-1.936-7.018-5.882-13.527-11.839-19.523l-2.64-2.428zM792.793 784.416c-6.093 5.54-13.095 8.322-21.005 8.346-7.755 0.028-14.89-2.702-21.408-8.188l44.855-40.789c5.396 6.507 7.841 13.501 7.338 20.982-0.347 7.485-3.607 14.034-9.78 19.648zM863.785 584.038l-28.639-11.111-4.25 10.027 19.245 7.466-29.867 70.489-19.246-7.465-4.249 10.027 28.639 11.11 1.902-4.49c2.544-5.17 8.005-7.233 16.384-6.19 8.387 1.044 19.537 3.861 33.475 8.454l27.112 9.299 24.609-58.067-70.315-27.277 5.201-12.272zM880.697 662.392c-11.532-3.89-21.276-6.567-29.241-8.032-7.867-1.425-13.922-0.87-18.172 1.663l20.797-49.087 60.765 23.573-16.043 37.863-18.107-5.98z" />
<glyph unicode="&#xe908;" glyph-name="button_new" d="M704.221 144.344c7.893 3.022 15.69 4.037 23.391 3.043 7.6-1.033 14.451-3.918 20.552-8.659 6.144-4.836 10.832-11.101 14.064-18.79 3.231-7.696 4.357-15.262 3.375-22.715s-3.846-14.060-8.591-19.814c-4.847-5.803-11.218-10.216-19.111-13.239-6.881-2.633-13.57-3.633-20.066-2.983-6.556 0.504-12.472 2.698-17.749 6.591l5.778 8.476c4.267-2.885 8.824-4.502 13.67-4.852 4.887-0.447 9.708 0.236 14.464 2.056 5.769 2.211 10.434 5.51 13.998 9.891 3.504 4.234 5.586 9.208 6.245 14.913 0.557 5.665-0.423 11.492-2.942 17.489-2.56 6.095-6.091 11.004-10.594 14.726-4.562 3.592-9.665 5.811-15.31 6.664-5.704 0.715-11.44-0.033-17.209-2.243-4.756-1.82-8.759-4.454-12.009-7.899s-5.373-7.623-6.367-12.532l-10.312 2.316c0.996 6.298 3.66 11.841 7.991 16.628 4.374 4.689 9.95 8.338 16.73 10.932zM536.169 19.944l2.073 85.471 10.563-0.236-1.64-67.592 36 56.426 5.2-0.114 33.221-58.124 1.644 67.763 10.562-0.236-2.073-85.471-11.7 0.26-34.743 62.383-38.382-60.765-10.724 0.236zM458.417 109.682c7.782-2.69 14.143-6.843 19.082-12.442 4.901-5.713 7.97-12.272 9.208-19.692s0.377-15.035-2.584-22.829c-2.961-7.802-7.407-14.173-13.337-19.115s-12.672-8.054-20.226-9.33c-7.554-1.284-15.223-0.585-23.005 2.113-7.782 2.69-14.143 6.843-19.083 12.451-4.939 5.599-7.976 12.101-9.112 19.48-1.239 7.42-0.377 15.035 2.584 22.829 2.961 7.802 7.407 14.173 13.336 19.115 5.828 4.974 12.537 8.151 20.131 9.541 7.554 1.276 15.222 0.577 23.005-2.121zM454.783 100.108c-5.734 1.991-11.336 2.495-16.803 1.52-5.608-1.040-10.596-3.495-14.963-7.371s-7.705-8.858-10.012-14.929c-2.307-6.079-3.084-11.947-2.332-17.595s2.952-10.533 6.599-14.661c3.505-4.194 8.125-7.282 13.861-9.265s11.405-2.454 17.013-1.414c5.468 0.975 10.436 3.381 14.906 7.217 4.367 3.877 7.705 8.85 10.012 14.929s3.085 11.947 2.332 17.595c-0.855 5.681-3.035 10.614-6.541 14.807-3.647 4.129-8.337 7.184-14.072 9.167zM287.684 101.238l27.087-17.676 43.812 61.185 9.664-6.311-43.812-61.188 27.086-17.676-5.961-8.322-63.837 41.659 5.961 8.33zM196.618 158.666c-4.836 6.396-7.698 13.232-8.585 20.509-0.976 7.215 0.145 14.168 3.366 20.858s8.311 12.433 15.27 17.228c7.049 4.858 14.406 7.693 22.070 8.505s14.974-0.329 21.928-3.425c6.8-3.070 12.651-7.847 17.553-14.329 4.182-5.532 6.813-11.344 7.891-17.438 0.923-6.068 0.189-12.097-2.205-18.085l39.214 27.025 6.959-9.205-96.361-66.412-6.666 8.818 13.919 9.59c-6.731-0.431-13.045 0.74-18.941 3.516-5.962 2.859-11.1 7.141-15.413 12.846zM260.278 201.552c-3.595 4.754-7.977 8.307-13.149 10.659-5.261 2.291-10.805 3.072-16.632 2.342-5.893-0.642-11.515-2.809-16.869-6.498s-9.232-8.073-11.638-13.149c-2.559-5.051-3.529-10.32-2.908-15.809s2.729-10.61 6.323-15.363c3.66-4.84 8.12-8.407 13.381-10.697 5.195-2.205 10.739-2.986 16.631-2.343 5.738 0.668 11.284 2.846 16.638 6.536s9.309 8.060 11.869 13.11c2.494 5.138 3.464 10.407 2.908 15.809-0.71 5.426-2.895 10.56-6.554 15.401zM150.326 326.377l21.951-68.065c8.325 3.125 14.191 8.407 17.597 15.844 3.303 7.407 3.507 15.596 0.614 24.569-1.63 5.053-4.011 9.434-7.141 13.143-3.235 3.677-7.118 6.545-11.651 8.599l5.178 8.297c5.53-2.326 10.32-5.886 14.37-10.679 4.016-4.691 7.072-10.284 9.168-16.781 2.694-8.354 3.321-16.299 1.882-23.835-1.577-7.464-4.954-13.933-10.131-19.406s-11.769-9.388-19.774-11.742c-8.005-2.354-15.727-2.761-23.166-1.221-7.473 1.642-13.94 4.934-19.404 9.876-5.497 5.045-9.46 11.332-11.887 18.861s-2.839 14.802-1.234 21.823c1.606 7.021 5.031 13.165 10.274 18.433 5.14 5.237 11.765 9.048 19.874 11.432l3.481 0.853zM127.444 276.632c2.527-7.838 7.203-13.689 14.026-17.554 6.686-3.793 14.2-4.857 22.542-3.196l-18.608 57.701c-7.876-3.106-13.444-8.074-16.705-14.903-3.398-6.758-3.816-14.107-1.255-22.048zM94.395 427.719l1.568-32.307 75.183 3.326 0.559-11.527-75.182-3.326 1.568-32.308-10.229-0.452-3.696 76.141 10.23 0.453zM118.157 511.907c2.953 10.316 7.422 17.571 13.408 21.765 6.016 4.298 13.279 5.379 21.793 3.243 8.828-2.215 14.802-6.842 17.921-13.88 3.148-6.933 3.159-15.871 0.033-26.814l-9.304-33.182-82.924 20.812 3.063 11.126 29.008-7.28 7.002 24.211zM162.626 497.731c2.205 7.6 2.263 13.728 0.174 18.386-2.165 4.788-6.348 7.96-12.549 9.516-6.096 1.529-11.148 0.731-15.154-2.396s-7.127-8.542-9.361-16.247l-6.226-21.389 36.89-9.259 6.226 21.39zM135.446 656.827l7.458 8.806 29.977-23.143 34.769 41.057-29.977 23.143 7.457 8.806 67.674-52.247-7.457-8.806-29.849 23.044-34.769-41.057 29.849-23.044-7.458-8.806-67.674 52.247zM298.102 706.879c-6.929-4.451-14.235-6.958-21.918-7.519-7.747-0.473-15.119 0.967-22.118 4.319s-12.902 8.439-17.709 15.259c-4.806 6.82-7.518 13.956-8.136 21.409s0.794 14.472 4.233 21.056c3.439 6.584 8.622 12.102 15.55 16.553s14.235 6.958 21.918 7.52c7.684 0.561 14.98-0.864 21.888-4.276 6.998-3.352 12.902-8.439 17.708-15.259s7.519-13.956 8.136-21.409c0.709-7.394-0.625-14.428-4.002-21.1-3.439-6.584-8.622-12.103-15.55-16.554zM292.202 715.249c5.105 3.28 8.883 7.316 11.334 12.107 2.48 4.939 3.391 10.221 2.736 15.848s-2.855 11.098-6.601 16.412c-3.746 5.314-8.225 9.321-13.438 12.019s-10.651 3.838-16.315 3.416c-5.634-0.275-11.004-2.051-16.109-5.331s-8.897-7.39-11.377-12.328c-2.45-4.792-3.394-10.030-2.831-15.716 0.655-5.627 2.856-11.097 6.601-16.412s8.225-9.321 13.439-12.020c5.304-2.64 10.773-3.822 16.408-3.548 5.664 0.422 11.048 2.272 16.153 5.552zM391.152 806.409c11.926 1.172 19.847-3.525 23.765-14.092 2.599-7.011 1.977-13.28-1.864-18.809s-10.947-10.044-21.315-13.548l-36.803-12.436-29.718 80.165 35.725 12.072c9.239 3.122 17.135 3.79 23.689 2.003s11.054-5.983 13.503-12.587c1.62-4.369 1.781-8.545 0.485-12.527-1.231-3.846-3.72-7.259-7.466-10.24zM349.061 795.615l24.33 8.221c6.262 2.116 10.602 4.898 13.021 8.345 2.522 3.482 2.953 7.458 1.296 11.928s-4.594 7.252-8.81 8.342c-4.114 1.126-9.301 0.63-15.564-1.486l-24.329-8.221 10.056-27.128zM388.111 768.338c6.981 2.358 11.802 5.246 14.464 8.66s3.108 7.51 1.337 12.286c-1.77 4.775-4.661 7.743-8.671 8.902-4.049 1.262-9.513 0.731-16.391-1.594l-26.793-9.054 10.339-27.89 25.715 8.69zM437.68 868.379l11.533 0.425 2.745-67.886 54.267 69.988 10.233 0.377 3.455-85.426-11.533-0.425-2.745 67.886-54.105-69.982-10.396-0.383-3.455 85.426zM576.97 877.847l11.102-3.147-11.152-36.193 51.761-14.673 11.152 36.193 11.103-3.148-25.176-81.705-11.103 3.148 11.105 36.037-51.762 14.673-11.104-36.037-11.103 3.148 25.177 81.705zM718.060 786.832l-16.179 10.895-22.599-30.592-9.573 6.446 50.8 68.767 9.573-6.446-22.31-30.2 16.314-10.985 47.251 13.405 10.381-6.991-52.535-14.544 3.757-55.585-11.325 7.626-3.556 48.204zM832.894 769.634l7.713-8.584-52.562-43.052 90.694 0.616 6.843-7.617-66.137-54.174-7.717 8.584 52.561 43.052-90.585-0.736-6.953 7.738 66.143 54.174zM516.23 431.746c-2.245 0-4.063-1.82-4.063-4.063s1.819-4.063 4.063-4.063v8.127zM1018.75 424.809c1.585 1.587 1.585 4.16 0 5.747l-25.86 25.859c-1.593 1.587-4.161 1.587-5.754 0-1.585-1.586-1.585-4.159 0-5.747l22.991-22.986-22.991-22.986c-1.585-1.587-1.585-4.16 0-5.747 1.593-1.587 4.161-1.587 5.754 0l25.86 25.859zM516.23 423.619h499.643v8.127h-499.643v-8.127z" />
<glyph unicode="&#xe909;" glyph-name="button_news" d="M704.221 144.344c7.893 3.022 15.69 4.037 23.391 3.043 7.6-1.033 14.451-3.918 20.552-8.659 6.144-4.836 10.832-11.101 14.064-18.79 3.231-7.696 4.357-15.262 3.375-22.715s-3.846-14.060-8.591-19.814c-4.847-5.803-11.218-10.216-19.111-13.239-6.881-2.633-13.57-3.633-20.066-2.983-6.556 0.504-12.472 2.698-17.749 6.591l5.778 8.476c4.267-2.885 8.824-4.502 13.67-4.852 4.887-0.447 9.708 0.236 14.464 2.056 5.769 2.211 10.434 5.51 13.998 9.891 3.504 4.234 5.586 9.208 6.245 14.913 0.557 5.665-0.423 11.492-2.942 17.489-2.56 6.095-6.091 11.004-10.594 14.726-4.562 3.592-9.665 5.811-15.31 6.664-5.704 0.715-11.44-0.033-17.208-2.243-4.756-1.82-8.759-4.454-12.009-7.899s-5.373-7.623-6.367-12.532l-10.312 2.316c0.996 6.298 3.66 11.841 7.991 16.628 4.374 4.689 9.95 8.338 16.73 10.932zM536.169 19.944l2.073 85.471 10.563-0.236-1.64-67.592 36 56.434 5.2-0.122 33.221-58.124 1.644 67.763 10.562-0.236-2.073-85.471-11.7 0.26-34.743 62.383-38.382-60.765-10.724 0.236zM458.417 109.682c7.782-2.69 14.143-6.843 19.082-12.442 4.901-5.713 7.97-12.272 9.208-19.692s0.377-15.035-2.584-22.829c-2.961-7.802-7.407-14.173-13.337-19.115s-12.672-8.054-20.226-9.33c-7.554-1.284-15.223-0.585-23.005 2.113-7.782 2.69-14.143 6.843-19.083 12.451-4.939 5.599-7.976 12.101-9.112 19.48-1.239 7.42-0.377 15.035 2.584 22.829 2.961 7.802 7.407 14.173 13.336 19.115 5.828 4.974 12.537 8.151 20.131 9.541 7.554 1.276 15.222 0.577 23.005-2.121zM454.783 100.108c-5.734 1.991-11.336 2.495-16.803 1.52-5.608-1.040-10.596-3.495-14.963-7.371s-7.705-8.858-10.012-14.929c-2.307-6.079-3.084-11.947-2.332-17.595s2.952-10.533 6.599-14.661c3.505-4.194 8.125-7.282 13.861-9.265s11.405-2.454 17.013-1.414c5.468 0.975 10.436 3.381 14.906 7.217 4.367 3.877 7.705 8.85 10.012 14.929s3.085 11.947 2.332 17.595c-0.855 5.681-3.035 10.614-6.541 14.807-3.647 4.129-8.337 7.184-14.072 9.167zM287.684 101.238l27.087-17.684 43.812 61.191 9.664-6.309-43.812-61.188 27.086-17.676-5.961-8.33-63.837 41.667 5.961 8.33zM196.618 158.666c-4.836 6.396-7.698 13.232-8.585 20.509-0.976 7.215 0.145 14.168 3.366 20.858s8.311 12.433 15.27 17.229c7.049 4.857 14.406 7.692 22.070 8.504s14.974-0.329 21.928-3.425c6.8-3.070 12.651-7.847 17.553-14.329 4.182-5.532 6.813-11.344 7.891-17.438 0.923-6.068 0.189-12.097-2.205-18.085l39.214 27.025 6.959-9.205-96.361-66.412-6.666 8.818 13.919 9.59c-6.731-0.431-13.045 0.74-18.941 3.516-5.962 2.859-11.1 7.141-15.413 12.846zM260.278 201.552c-3.595 4.754-7.977 8.307-13.149 10.659-5.261 2.291-10.805 3.072-16.632 2.343-5.893-0.643-11.515-2.809-16.869-6.498s-9.232-8.073-11.638-13.149c-2.559-5.051-3.529-10.32-2.908-15.809s2.729-10.61 6.323-15.363c3.66-4.84 8.12-8.407 13.381-10.697 5.195-2.205 10.739-2.986 16.631-2.343 5.738 0.668 11.284 2.846 16.638 6.536s9.309 8.060 11.869 13.11c2.494 5.138 3.464 10.407 2.908 15.809-0.71 5.426-2.895 10.56-6.554 15.401zM150.326 326.38l21.951-68.065c8.325 3.125 14.191 8.406 17.597 15.843 3.303 7.407 3.507 15.596 0.614 24.569-1.63 5.053-4.011 9.435-7.141 13.143-3.235 3.678-7.118 6.545-11.651 8.599l5.178 8.297c5.53-2.326 10.32-5.886 14.37-10.679 4.016-4.69 7.072-10.284 9.168-16.781 2.694-8.353 3.321-16.298 1.882-23.835-1.577-7.463-4.954-13.932-10.131-19.406s-11.769-9.387-19.774-11.741c-8.005-2.354-15.727-2.761-23.166-1.222-7.473 1.642-13.94 4.934-19.404 9.877-5.497 5.045-9.46 11.332-11.887 18.86s-2.839 14.803-1.234 21.824c1.606 7.020 5.031 13.165 10.274 18.432 5.14 5.238 11.765 9.048 19.874 11.432l3.481 0.854zM127.444 276.634c2.527-7.838 7.203-13.689 14.026-17.554 6.686-3.792 14.2-4.857 22.542-3.195l-18.608 57.701c-7.876-3.106-13.444-8.074-16.705-14.904-3.398-6.758-3.816-14.107-1.255-22.048zM94.395 427.722l1.568-32.308 75.183 3.327 0.559-11.527-75.182-3.326 1.568-32.307-10.229-0.453-3.696 76.142 10.23 0.453zM118.157 511.907c2.953 10.316 7.422 17.571 13.408 21.765 6.016 4.298 13.279 5.379 21.793 3.243 8.828-2.215 14.802-6.842 17.921-13.88 3.148-6.933 3.159-15.871 0.033-26.814l-9.304-33.182-82.924 20.812 3.063 11.126 29.008-7.28 7.002 24.211zM162.626 497.731c2.205 7.6 2.263 13.728 0.174 18.386-2.165 4.788-6.348 7.96-12.549 9.516-6.096 1.529-11.148 0.731-15.154-2.396s-7.127-8.542-9.361-16.247l-6.226-21.389 36.89-9.259 6.226 21.39zM135.543 656.751l7.458 8.807 29.977-23.144 34.769 41.057-29.977 23.144 7.458 8.806 67.674-52.247-7.458-8.807-29.849 23.045-34.769-41.057 29.849-23.045-7.458-8.806-67.674 52.247zM298.138 706.827c-6.928-4.451-14.234-6.958-21.918-7.519-7.747-0.473-15.119 0.967-22.118 4.32s-12.902 8.439-17.709 15.259c-4.807 6.819-7.519 13.956-8.136 21.409s0.793 14.471 4.232 21.055c3.439 6.584 8.623 12.102 15.551 16.554s14.235 6.958 21.918 7.519c7.684 0.562 14.98-0.864 21.887-4.275 6.999-3.353 12.902-8.439 17.709-15.259s7.519-13.956 8.136-21.409c0.709-7.395-0.625-14.428-4.002-21.101-3.439-6.584-8.622-12.102-15.551-16.554zM292.24 715.197c5.105 3.28 8.883 7.316 11.334 12.108 2.479 4.939 3.391 10.221 2.736 15.848s-2.855 11.097-6.601 16.412c-3.746 5.314-8.225 9.321-13.438 12.020s-10.651 3.837-16.315 3.415c-5.634-0.274-11.004-2.051-16.109-5.331s-8.897-7.389-11.377-12.328c-2.45-4.791-3.394-10.030-2.831-15.715 0.655-5.627 2.855-11.098 6.601-16.412s8.225-9.321 13.439-12.019c5.304-2.64 10.773-3.823 16.408-3.548 5.664 0.421 11.048 2.271 16.153 5.552zM391.16 806.388c11.926 1.172 19.847-3.525 23.765-14.092 2.599-7.010 1.977-13.28-1.864-18.808s-10.947-10.045-21.315-13.548l-36.803-12.437-29.718 80.165 35.725 12.073c9.239 3.122 17.135 3.79 23.689 2.002s11.054-5.982 13.503-12.586c1.62-4.369 1.781-8.545 0.485-12.527-1.231-3.846-3.72-7.26-7.466-10.241zM349.069 795.594l24.33 8.222c6.262 2.116 10.602 4.897 13.021 8.345 2.522 3.482 2.953 7.457 1.296 11.928s-4.594 7.251-8.81 8.342c-4.114 1.125-9.301 0.63-15.564-1.486l-24.329-8.221 10.056-27.129zM388.119 768.317c6.981 2.359 11.802 5.246 14.464 8.661s3.108 7.509 1.337 12.285c-1.77 4.775-4.661 7.743-8.671 8.903-4.049 1.261-9.513 0.73-16.391-1.595l-26.793-9.054 10.339-27.889 25.715 8.689zM476.415 783.439c-8.229-0.303-15.722 1.264-22.476 4.701-6.758 3.547-12.166 8.552-16.224 15.016s-6.254 13.866-6.591 22.203c-0.337 8.337 1.256 15.878 4.779 22.621s8.512 12.079 14.969 16.004c6.457 3.925 13.8 6.039 22.030 6.342s15.722-1.264 22.476-4.701c6.754-3.438 12.106-8.391 16.055-14.86 4.057-6.464 6.254-13.865 6.591-22.202s-1.256-15.878-4.779-22.621c-3.414-6.741-8.348-12.127-14.8-16.161-6.457-3.925-13.8-6.038-22.030-6.342zM476.002 793.671c6.064 0.223 11.424 1.777 16.079 4.659 4.758 2.995 8.389 7.086 10.89 12.275s3.621 11.031 3.358 17.527c-0.263 6.497-1.851 12.239-4.763 17.228s-6.861 8.747-11.843 11.274c-4.879 2.64-10.35 3.847-16.413 3.624s-11.476-1.833-16.235-4.827c-4.655-2.882-8.287-6.919-10.897-12.112-2.501-5.188-3.621-11.031-3.358-17.527s1.851-12.239 4.763-17.228c3.022-4.985 6.971-8.797 11.85-11.436 4.983-2.527 10.506-3.679 16.569-3.456zM585.953 785.597c-8.132 2.306-14.887 6.135-20.265 11.488-5.274 5.323-8.763 11.661-10.465 19.012-1.671 7.455-1.278 15.169 1.179 23.142s6.484 14.602 12.078 19.884c5.595 5.283 12.115 8.783 19.559 10.501 7.549 1.689 15.389 1.381 23.52-0.925 7.089-2.010 12.966-5.196 17.63-9.558 4.8-4.288 8.002-9.531 9.606-15.728l-10.011-3.243c-1.466 4.807-3.981 8.785-7.545 11.935-3.532 3.253-7.747 5.574-12.647 6.963-5.942 1.685-11.726 1.86-17.351 0.527-5.49-1.259-10.339-3.938-14.549-8.037-4.107-4.128-7.117-9.299-9.032-15.512-1.946-6.317-2.366-12.278-1.26-17.884 1.243-5.532 3.795-10.309 7.657-14.332 3.998-3.948 8.968-6.764 14.91-8.449 4.9-1.389 9.739-1.691 14.515-0.905s9.142 2.813 13.097 6.083l6.565-7.941c-4.859-4.366-10.534-7.148-17.025-8.348-6.459-1.097-13.181-0.655-20.166 1.325zM764.269 800.463l-26.829 18.066-44.716-60.531-9.572 6.446 44.715 60.531-26.83 18.066 6.085 8.237 63.231-42.58-6.085-8.236zM832.805 769.561l7.713-8.584-52.564-43.052 90.696 0.615 6.843-7.617-66.146-54.174-7.71 8.584 52.563 43.052-90.587-0.737-6.953 7.738 66.145 54.175zM516.23 431.746c-2.245 0-4.063-1.82-4.063-4.063s1.819-4.063 4.063-4.063v8.127zM1018.75 424.809c1.585 1.587 1.585 4.16 0 5.747l-25.86 25.859c-1.593 1.587-4.161 1.587-5.754 0-1.585-1.586-1.585-4.159 0-5.747l22.991-22.986-22.991-22.986c-1.585-1.587-1.585-4.16 0-5.747 1.593-1.587 4.161-1.587 5.754 0l25.86 25.859zM516.23 423.619h499.643v8.127h-499.643v-8.127z" />
<glyph unicode="&#xe90a;" glyph-name="grid" d="M271.059 749.176v-240.941h-240.941v120.471c0 66.534 53.936 120.471 120.471 120.471h120.471zM150.588 779.294c-83.167 0-150.588-67.421-150.588-150.588v-150.588h301.176v301.176h-150.588zM271.059 387.765v-240.941h-240.941v240.941h240.941zM0 417.882v-301.176h301.176v301.176h-301.176zM632.471 749.176v-240.941h-240.941v240.941h240.941zM361.412 779.294v-301.176h301.176v301.176h-301.176zM632.471 387.765v-240.941h-240.941v240.941h240.941zM361.412 417.882v-301.176h301.176v301.176h-301.176zM993.882 749.176v-240.941h-240.941v240.941h240.941zM722.824 779.294v-301.176h301.176v301.176h-301.176zM993.882 387.765v-120.471c0-66.533-53.938-120.471-120.471-120.471h-120.471v240.941h240.941zM722.824 417.882v-301.176h150.588c83.167 0 150.588 67.421 150.588 150.588v150.588h-301.176z" />
<glyph unicode="&#xe90b;" glyph-name="compare" d="M507.706 876.962c75.435 0 150.989-21.413 218.498-61.927 42.817-25.762 81.292-58.14 113.978-95.947l-112.78 3.72c-13.244 0.442-24.337-9.945-24.771-23.197-0.437-13.245 9.943-24.345 23.197-24.773l156.037-5.152c8.963-3.69 19.268-1.627 26.122 5.235 6.847 6.863 8.895 17.167 5.192 26.13l-5.137 156c-0.3 13.252-11.288 23.752-24.542 23.46-13.244-0.3-23.76-11.288-23.46-24.532 0-0.18 0-0.345 0.014-0.518l2.973-90c-33.017 35.28-70.748 65.827-112.128 90.75-74.96 44.977-159.058 68.752-243.193 68.752-134.4 0-258.315-55.418-348.87-156.037-80.22-89.137-128.115-209.114-128.115-320.949 0-13.251 10.74-23.999 24-23.999s24 10.749 24 23.999c0 100.297 43.283 208.276 115.793 288.834 81.345 90.368 192.562 140.152 313.193 140.152zM966.717 471.979c-13.261 0-23.999-10.742-23.999-24.003 0-100.287-43.284-208.275-115.794-288.84-81.343-90.365-192.563-140.138-313.19-140.138-75.435 0-150.992 21.398-218.499 61.914-42.818 25.771-81.292 58.146-113.977 95.945l112.778-3.717c13.245-0.43 24.337 9.96 24.772 23.204s-9.945 24.337-23.197 24.781l-156.037 5.144c-8.962 3.69-19.268 1.621-26.123-5.236-6.847-6.861-8.895-17.159-5.19-26.122l5.137-156c0.3-13.261 11.288-23.767 24.54-23.467 13.245 0.294 23.76 11.281 23.46 24.532 0 0.174 0 0.338-0.015 0.519l-2.97 89.999c33.015-35.287 70.747-65.819 112.125-90.757 74.963-44.984 159.061-68.751 243.196-68.751 134.4 0 258.314 55.409 348.87 156.027 80.22 89.146 128.113 209.125 128.113 320.963 0 13.261-10.738 24.003-23.999 24.003z" />
<glyph unicode="&#xe90c;" glyph-name="close" d="M568.571 447.998l443.715 443.715c15.622 15.622 15.622 40.95 0 56.57s-40.954 15.622-56.57 0l-443.717-443.715-443.713 443.715c-15.622 15.622-40.95 15.622-56.57 0s-15.622-40.95 0-56.57l443.713-443.713-443.713-443.717c-15.622-15.622-15.622-40.949 0-56.57 7.81-7.805 18.048-11.713 28.286-11.713s20.474 3.908 28.286 11.713l443.711 443.715 443.711-443.715c7.811-7.805 18.051-11.713 28.291-11.713 10.234 0 20.469 3.908 28.285 11.713 15.622 15.622 15.622 40.954 0 56.57l-443.715 443.715z" />
<glyph unicode="&#xe90d;" glyph-name="favorites" d="M733.648 871.87c-85.419 0.456-166.625-37.059-221.648-102.399-54.682 65.786-136.113 103.408-221.652 102.399-160.355 0-290.348-129.993-290.348-290.347 0-274.797 479.594-543.109 499.040-553.479 7.844-5.243 18.074-5.243 25.921 0 19.446 10.37 499.040 274.794 499.040 553.479 0 160.354-129.993 290.347-290.352 290.347zM512 79.892c-75.182 44.070-460.152 278.682-460.152 501.63 0 131.718 106.78 238.501 238.502 238.501 80.662 1.059 156.151-39.627 199.613-107.584 8.827-12.169 25.849-14.881 38.018-6.054 2.324 1.687 4.369 3.729 6.055 6.054 72.083 110.244 219.894 141.177 330.138 69.091 67.488-44.13 108.111-119.371 107.974-200.008 0.003-225.539-384.969-458.858-460.148-501.63z" />
<glyph unicode="&#xe90e;" glyph-name="filter" d="M405.333-64c-3.627 0-7.253 0.896-10.496 2.773-6.699 3.797-10.837 10.88-10.837 18.56v431.019c0 18.304-7.851 35.712-21.504 47.829l-326.741 290.261c-22.699 20.096-35.755 49.28-35.755 79.957v89.6c0 35.285 28.715 64 64 64h896c35.285 0 64-28.715 64-64v-89.6c0-30.677-13.056-59.861-35.797-80l-326.699-290.261c-13.653-12.117-21.504-29.525-21.504-47.787v-278.827c0-22.315-11.861-43.349-31.061-54.869l-192.683-115.584c-3.328-2.048-7.125-3.072-10.923-3.072zM64 917.333c-11.733 0-21.333-9.557-21.333-21.333v-89.6c0-18.475 7.808-36.011 21.376-48l326.784-290.304c22.741-20.224 35.84-49.28 35.84-79.744v-393.344l160.341 96.171c6.357 3.84 10.325 10.88 10.325 18.304v278.827c0 30.464 13.099 59.563 35.84 79.744l326.741 290.261c13.611 12.075 21.419 29.611 21.419 48.085v89.6c0 11.776-9.6 21.333-21.333 21.333h-896z" />
<glyph unicode="&#xe90f;" glyph-name="list" d="M271.059 749.176v-240.941h-240.941v120.471c0 66.534 53.936 120.471 120.471 120.471h120.471zM150.588 779.294c-83.167 0-150.588-67.421-150.588-150.588v-150.588h301.176v301.176h-150.588zM271.059 387.765v-240.941h-240.941v240.941h240.941zM0 417.882v-301.176h301.176v301.176h-301.176zM993.882 749.176v-240.941h-602.353v240.941h602.353zM361.412 779.294v-301.176h662.588v301.176h-662.588zM993.882 387.765v-120.471c0-66.533-53.938-120.471-120.471-120.471h-481.882v240.941h602.353zM361.412 417.882v-301.176h512c83.167 0 150.588 67.421 150.588 150.588v150.588h-662.588z" />
<glyph unicode="&#xe910;" glyph-name="logo" d="M98.529 491.458c-2.997-0.167-5.203-0.5-6.619-0.999-1.332-0.5-2.248-1.457-2.747-2.872s-0.749-3.705-0.749-6.868v-61.94c0-3.163 0.25-5.453 0.749-6.868s1.415-2.373 2.747-2.872c1.415-0.5 3.621-0.833 6.619-0.999v-2.498c-3.83 0.25-9.116 0.375-15.86 0.375-7.16 0-12.488-0.125-15.984-0.375v2.498c2.997 0.166 5.161 0.5 6.494 0.999 1.415 0.5 2.373 1.457 2.872 2.872s0.749 3.705 0.749 6.868v66.935l-30.096-80.796h-1.998l-31.469 81.046v-65.936c0-3.247 0.25-5.661 0.749-7.243 0.583-1.582 1.665-2.747 3.247-3.497 1.582-0.666 4.038-1.082 7.368-1.249v-2.498c-2.997 0.25-7.243 0.375-12.738 0.375-4.995 0-8.866-0.125-11.614-0.375v2.498c2.914 0.166 5.078 0.583 6.494 1.249 1.415 0.749 2.373 1.915 2.872 3.497 0.5 1.665 0.749 4.080 0.749 7.243v60.691c0 3.164-0.25 5.453-0.749 6.868s-1.457 2.373-2.872 2.872c-1.332 0.5-3.497 0.833-6.494 0.999v2.498c2.747-0.25 6.619-0.375 11.614-0.375 4.329 0 7.867 0.125 10.615 0.375l27.473-72.304 26.849 71.93h5.869c6.743 0 12.030 0.125 15.86 0.375v-2.498zM187.079 416.031c1.998-5.161 4.87-7.826 8.617-7.992v-2.498c-3.33 0.25-7.784 0.375-13.362 0.375-7.16 0-12.488-0.125-15.984-0.375v2.498c3.164 0.166 5.412 0.541 6.743 1.124 1.416 0.666 2.123 1.832 2.123 3.497 0 1.415-0.5 3.372-1.499 5.869l-7.618 20.48h-30.22l-5.12-13.237c-1.665-4.496-2.498-7.909-2.498-10.24 0-2.581 0.874-4.454 2.622-5.62 1.832-1.165 4.579-1.79 8.242-1.873v-2.498c-4.745 0.25-9.532 0.375-14.361 0.375-3.746 0-6.868-0.125-9.366-0.375v2.498c4.163 0.999 7.451 4.62 9.865 10.864l29.346 75.676h1.998l30.47-78.548zM165.1 441.506l-13.986 37.339-14.236-37.339h28.222zM296.707 491.458c-2.997-0.167-5.203-0.5-6.619-0.999-1.332-0.5-2.248-1.457-2.747-2.872s-0.749-3.705-0.749-6.868v-61.94c0-3.163 0.25-5.453 0.749-6.868s1.415-2.373 2.747-2.872c1.415-0.5 3.621-0.833 6.619-0.999v-2.498c-3.497 0.25-8.825 0.375-15.984 0.375-6.743 0-12.030-0.125-15.86-0.375v2.498c2.997 0.166 5.161 0.5 6.494 0.999 1.415 0.5 2.373 1.457 2.872 2.872s0.749 3.705 0.749 6.868v29.971h-40.585v-29.971c0-3.163 0.25-5.453 0.749-6.868s1.415-2.373 2.747-2.872c1.415-0.5 3.621-0.833 6.619-0.999v-2.498c-3.83 0.25-9.116 0.375-15.86 0.375-7.16 0-12.488-0.125-15.984-0.375v2.498c2.997 0.166 5.161 0.5 6.494 0.999 1.415 0.5 2.373 1.457 2.872 2.872s0.749 3.705 0.749 6.868v61.94c0 3.164-0.25 5.453-0.749 6.868s-1.457 2.373-2.872 2.872c-1.332 0.5-3.497 0.833-6.494 0.999v2.498c3.497-0.25 8.825-0.375 15.984-0.375 6.66 0 11.947 0.125 15.86 0.375v-2.498c-2.997-0.167-5.203-0.5-6.619-0.999-1.332-0.5-2.248-1.457-2.747-2.872s-0.749-3.705-0.749-6.868v-29.471h40.585v29.471c0 3.164-0.25 5.453-0.749 6.868s-1.457 2.373-2.872 2.872c-1.332 0.5-3.497 0.833-6.494 0.999v2.498c3.83-0.25 9.116-0.375 15.86-0.375 7.16 0 12.488 0.125 15.984 0.375v-2.498zM406.205 491.458c-2.997-0.167-5.203-0.5-6.619-0.999-1.332-0.5-2.248-1.457-2.747-2.872s-0.749-3.705-0.749-6.868v-61.94c0-3.163 0.25-5.453 0.749-6.868s1.415-2.373 2.747-2.872c1.415-0.5 3.621-0.833 6.619-0.999v-2.498c-3.497 0.25-8.825 0.375-15.984 0.375-6.66 0-11.947-0.125-15.86-0.375v2.498c2.997 0.166 5.161 0.5 6.494 0.999 1.415 0.5 2.373 1.457 2.872 2.872s0.749 3.705 0.749 6.868v59.067l-43.083-61.065c0.083-2.414 0.416-4.246 0.999-5.495 0.583-1.165 1.54-1.957 2.872-2.373s3.413-0.708 6.244-0.874v-2.498c-3.83 0.25-9.116 0.375-15.86 0.375-7.16 0-12.488-0.125-15.984-0.375v2.498c2.997 0.166 5.161 0.5 6.494 0.999 1.415 0.5 2.373 1.457 2.872 2.872s0.749 3.705 0.749 6.868v61.94c0 3.164-0.25 5.453-0.749 6.868s-1.457 2.373-2.872 2.872c-1.332 0.5-3.497 0.833-6.494 0.999v2.498c3.497-0.25 8.825-0.375 15.984-0.375 6.66 0 11.947 0.125 15.86 0.375v-2.498c-2.997-0.167-5.203-0.5-6.619-0.999-1.332-0.5-2.248-1.457-2.747-2.872s-0.749-3.705-0.749-6.868v-59.067l43.083 61.065c-0.083 2.414-0.416 4.204-0.999 5.37-0.583 1.249-1.54 2.081-2.872 2.498s-3.413 0.708-6.244 0.874v2.498c3.913-0.25 9.2-0.375 15.86-0.375 7.16 0 12.488 0.125 15.984 0.375v-2.498zM500.281 491.458c-2.998-0.167-5.204-0.5-6.619-0.999-1.332-0.5-2.248-1.457-2.747-2.872s-0.749-3.705-0.749-6.868v-61.94c0-3.163 0.25-5.453 0.749-6.868s1.415-2.373 2.747-2.872c1.415-0.5 3.621-0.833 6.619-0.999v-2.498c-3.497 0.25-8.825 0.375-15.985 0.375-6.66 0-11.947-0.125-15.86-0.375v2.498c2.997 0.166 5.161 0.5 6.494 0.999 1.415 0.5 2.373 1.457 2.872 2.872s0.749 3.705 0.749 6.868v28.722h-12.488c-3.163 0-5.62-0.708-7.368-2.123s-3.080-3.288-3.996-5.62c-0.833-2.331-1.748-5.661-2.747-9.99l-2.747-12.488c-1.082-4.995-2.747-8.492-4.995-10.49-2.164-1.998-4.954-2.997-8.367-2.997-3.163 0-5.703 0.624-7.618 1.873s-3.83 3.288-5.744 6.119l1.873 1.374c1.249-1.665 2.331-2.872 3.247-3.621 0.999-0.749 2.206-1.124 3.621-1.124 1.582 0 2.789 0.708 3.621 2.123 0.833 1.499 1.665 4.204 2.498 8.117l2.872 12.738c1.165 5.245 3.080 9.075 5.744 11.489s6.743 4.079 12.238 4.995l1.623 0.25c-8.408 1.249-14.486 4.121-18.232 8.617-3.663 4.579-5.495 9.699-5.495 15.36 0 6.41 2.581 11.614 7.742 15.61 5.245 4.079 12.696 6.119 22.353 6.119 1.998 0 3.788-0.042 5.37-0.125l13.487-0.125c6.66 0 11.739 0.125 15.236 0.375v-2.498zM448.581 471.602c0-6.91 1.54-12.238 4.62-15.984s8.741-5.62 16.983-5.62h8.367v30.72c0 2.997-0.25 5.245-0.749 6.743s-1.415 2.539-2.747 3.122c-1.249 0.583-3.163 0.874-5.744 0.874-7.243 0-12.529-1.707-15.86-5.12-3.247-3.413-4.87-8.325-4.87-14.736zM600.104 458.115c9.74 0 17.188-2.414 22.353-7.243 5.16-4.745 7.742-11.073 7.742-18.981 0-7.493-2.543-13.778-7.618-18.857-4.995-4.995-13.407-7.493-25.225-7.493l-5.37 0.125c-3.497 0.166-6.953 0.25-10.365 0.25-6.329 0-11.239-0.125-14.736-0.375v2.498c2.997 0.166 5.16 0.5 6.494 0.999 1.414 0.5 2.373 1.457 2.872 2.872s0.749 3.705 0.749 6.868v61.94c0 3.164-0.25 5.453-0.749 6.868s-1.459 2.373-2.872 2.872c-1.334 0.5-3.497 0.833-6.494 0.999v2.498c8.157-0.25 20.23-0.375 36.215-0.375 10.49 0 17.937 0.125 22.353 0.375-0.584-5.495-0.874-10.406-0.874-14.736 0-3.247 0.125-5.828 0.375-7.742h-2.872c-0.584 5.411-1.334 9.407-2.248 11.988-0.919 2.664-2.458 4.579-4.62 5.744-2.168 1.249-5.455 1.873-9.865 1.873h-6.619c-2.997 0-5.205-0.25-6.619-0.749-1.334-0.416-2.248-1.332-2.747-2.747s-0.749-3.705-0.749-6.868v-22.853l11.489 0.25zM596.982 408.039c7.907 0 13.317 2.081 16.234 6.244 2.997 4.162 4.496 9.99 4.496 17.483 0 8.408-1.668 14.486-4.995 18.232-3.332 3.83-8.951 5.744-16.859 5.744-2.917 0-5.33-0.042-7.243-0.125v-36.839c0-3.080 0.205-5.37 0.624-6.868 0.415-1.499 1.164-2.539 2.248-3.122 1.164-0.5 2.997-0.749 5.495-0.749zM721.071 493.58c3.746 0 6.868 0.125 9.366 0.375v-2.498c-1.663-0.416-3.287-1.499-4.87-3.247-1.583-1.665-3.287-4.287-5.12-7.867l-27.223-54.197-5.12-10.365c-1.833-3.746-3.661-6.535-5.495-8.367-1.249-1.249-2.707-2.164-4.371-2.747s-3.332-0.874-4.995-0.874c-2.582 0-4.705 0.666-6.369 1.998-1.583 1.332-2.373 3.163-2.373 5.495 0 1.998 0.624 3.58 1.873 4.745 1.249 1.249 2.832 1.873 4.745 1.873 1.833 0 3.332-0.541 4.496-1.623 1.249-0.999 1.873-2.414 1.873-4.246 0-1.249-0.335-2.373-0.999-3.372-0.584-0.916-1.374-1.665-2.373-2.248 0.165-0.083 0.415-0.125 0.749-0.125 2.163 0 4.081 0.791 5.744 2.373 1.748 1.582 3.412 3.996 4.995 7.243l3.372 6.993-33.467 61.44c-1.499 2.747-2.832 4.579-3.996 5.495-1.084 0.999-2.163 1.499-3.247 1.499v2.622c3.247-0.25 6.908-0.375 10.989-0.375 8.077 0 13.901 0.125 17.483 0.375v-2.622c-5.829 0-8.741-1.582-8.741-4.745 0-1.249 0.415-2.706 1.249-4.371l25.475-47.454 19.606 39.337c2.248 4.412 3.372 7.992 3.372 10.74 0 2.331-0.914 3.996-2.747 4.995s-4.581 1.54-8.242 1.623v2.498c4.745-0.25 9.531-0.375 14.361-0.375zM815.788 493.955c-0.584-5.911-0.874-11.239-0.874-15.984 0-4.163 0.125-7.576 0.375-10.24h-2.872c-0.669 6.41-1.499 11.156-2.498 14.236-0.999 3.164-2.747 5.453-5.245 6.868-2.498 1.499-6.329 2.248-11.489 2.248h-6.743v-71.056c0-3.497 0.33-6.036 0.999-7.618 0.664-1.582 1.828-2.664 3.497-3.247 1.663-0.583 4.371-0.958 8.117-1.124v-2.498c-4.331 0.25-10.45 0.375-18.357 0.375-8.327 0-14.486-0.125-18.482-0.375v2.498c3.746 0.166 6.449 0.541 8.117 1.124 1.663 0.583 2.827 1.665 3.497 3.247 0.664 1.582 0.999 4.121 0.999 7.618v71.056h-6.743c-5.165 0-8.991-0.749-11.489-2.248-2.498-1.415-4.246-3.705-5.245-6.868-0.999-3.080-1.833-7.826-2.498-14.236h-2.872c0.25 2.664 0.375 6.077 0.375 10.24 0 4.745-0.295 10.074-0.874 15.984 6.908-0.25 18.647-0.375 35.216-0.375 16.484 0 28.177 0.125 35.091 0.375zM923.693 491.458c-2.997-0.167-5.205-0.5-6.619-0.999-1.334-0.5-2.248-1.457-2.747-2.872s-0.749-3.705-0.749-6.868v-61.94c0-3.163 0.25-5.453 0.749-6.868s1.414-2.373 2.747-2.872c1.414-0.5 3.621-0.833 6.619-0.999v-2.498c-3.497 0.25-8.826 0.375-15.984 0.375-6.658 0-11.948-0.125-15.86-0.375v2.498c2.997 0.166 5.16 0.5 6.494 0.999 1.414 0.5 2.373 1.457 2.872 2.872s0.749 3.705 0.749 6.868v59.067l-43.083-61.065c0.085-2.414 0.415-4.246 0.999-5.495 0.584-1.165 1.538-1.957 2.872-2.373s3.412-0.708 6.244-0.874v-2.498c-3.831 0.25-9.116 0.375-15.86 0.375-7.158 0-12.488-0.125-15.984-0.375v2.498c2.997 0.166 5.16 0.5 6.494 0.999 1.414 0.5 2.373 1.457 2.872 2.872s0.749 3.705 0.749 6.868v61.94c0 3.164-0.25 5.453-0.749 6.868s-1.459 2.373-2.872 2.872c-1.334 0.5-3.497 0.833-6.494 0.999v2.498c3.497-0.25 8.826-0.375 15.984-0.375 6.658 0 11.948 0.125 15.86 0.375v-2.498c-2.997-0.167-5.205-0.5-6.619-0.999-1.334-0.5-2.248-1.457-2.747-2.872s-0.749-3.705-0.749-6.868v-59.067l43.083 61.065c-0.085 2.414-0.415 4.204-0.999 5.37-0.584 1.249-1.538 2.081-2.872 2.498s-3.412 0.708-6.244 0.874v2.498c3.911-0.25 9.201-0.375 15.86-0.375 7.158 0 12.488 0.125 15.984 0.375v-2.498zM1023.89 411.785c-1.833-2.747-3.706-4.787-5.62-6.119-1.918-1.249-4.496-1.873-7.742-1.873-3.332 0-6.119 0.958-8.367 2.872-2.168 1.915-3.831 5.453-4.995 10.615l-3.497 15.485c-0.999 4.246-1.998 7.493-2.997 9.74-0.919 2.331-2.498 4.163-4.745 5.495-2.168 1.415-5.245 2.123-9.241 2.123h-8.242v-31.344c0-3.163 0.25-5.453 0.749-6.868s1.414-2.373 2.747-2.872c1.414-0.5 3.621-0.833 6.619-0.999v-2.498c-3.831 0.25-9.116 0.375-15.86 0.375-7.163 0-12.488-0.125-15.984-0.375v2.498c2.997 0.166 5.16 0.5 6.494 0.999 1.414 0.5 2.373 1.457 2.872 2.872s0.749 3.705 0.749 6.868v61.94c0 3.164-0.25 5.453-0.749 6.868s-1.459 2.373-2.872 2.872c-1.334 0.5-3.497 0.833-6.494 0.999v2.498c3.497-0.25 8.821-0.375 15.984-0.375 6.658 0 11.943 0.125 15.86 0.375v-2.498c-2.997-0.167-5.205-0.5-6.619-0.999-1.334-0.5-2.248-1.457-2.747-2.872s-0.749-3.705-0.749-6.868v-28.222c6.159 0.083 11.069 2.498 14.736 7.243l11.988 15.235c4.246 5.245 6.369 9.241 6.369 11.988 0 2.914-2.582 4.412-7.742 4.496v2.498c4.745-0.25 9.531-0.375 14.361-0.375 4.576 0 8.117 0.125 10.615 0.375v-2.498c-5.664-0.833-10.575-3.871-14.736-9.116l-23.477-29.971c6.658-0.25 12.068-1.707 16.234-4.371 4.246-2.581 7.118-7.118 8.617-13.612l3.621-15.735c0.914-3.996 1.748-6.702 2.498-8.117 0.829-1.415 2.038-2.123 3.621-2.123 1.414 0 2.577 0.375 3.497 1.124 0.999 0.749 2.123 1.957 3.372 3.621l1.873-1.374z" />
<glyph unicode="&#xe911;" glyph-name="mail" d="M938.667 832h-853.332c-47.064 0-85.334-38.27-85.334-85.334v-597.332c0-47.061 38.27-85.333 85.334-85.333h853.332c47.061 0 85.333 38.272 85.333 85.333v597.332c0 47.064-38.272 85.334-85.333 85.334zM85.334 789.334h853.332c3.145 0 5.914-1.146 8.866-1.794-73.877-67.614-318.848-291.719-404.574-368.954-6.707-6.042-17.519-13.252-30.959-13.252-13.436 0-24.247 7.211-30.976 13.269-85.72 77.227-330.702 301.343-404.568 368.933 2.956 0.648 5.732 1.798 8.878 1.798zM42.666 149.333v597.332c0 4.18 1.26 7.972 2.388 11.792 56.544-51.752 227.472-208.12 338.304-308.905-110.472-94.895-281.444-256.99-338.438-311.339-1.006 3.627-2.254 7.177-2.254 11.119zM938.667 106.667h-853.332c-3.408 0-6.438 1.186-9.62 1.946 58.894 56.145 230.954 219.174 339.484 312.021 14.148-12.834 27.072-24.538 37.261-33.719 17.583-15.876 38.165-24.247 59.541-24.247s41.958 8.375 59.52 24.23c10.193 9.182 23.125 20.894 37.282 33.737 108.535-92.838 280.572-255.855 339.486-312.021-3.183-0.759-6.208-1.946-9.621-1.946zM981.333 149.333c0-3.942-1.246-7.492-2.253-11.119-57.015 54.374-227.968 216.452-338.436 311.334 110.835 100.787 281.737 257.141 338.3 308.913 1.131-3.82 2.389-7.614 2.389-11.794v-597.335z" />
<glyph unicode="&#xe912;" glyph-name="menu" d="M1024 682.667c0 11.782-9.553 21.333-21.333 21.333h-981.333c-11.782 0-21.333-9.551-21.333-21.333s9.551-21.333 21.333-21.333h981.333c11.78 0 21.333 9.551 21.333 21.333zM768 256c0 11.78-9.553 21.333-21.333 21.333h-725.333c-11.782 0-21.333-9.553-21.333-21.333s9.551-21.333 21.333-21.333h725.333c11.78 0 21.333 9.553 21.333 21.333z" />
<glyph unicode="&#xe913;" glyph-name="minus" d="M981.333 490.667h-938.666c-23.565 0-42.667-19.102-42.667-42.667s19.102-42.667 42.667-42.667h938.666c23.563 0 42.667 19.103 42.667 42.667s-19.103 42.667-42.667 42.667z" />
<glyph unicode="&#xe914;" glyph-name="notify" d="M576 781.653c-11.776 0-21.333 9.557-21.333 21.333v71.68c0 23.509-19.157 42.667-42.667 42.667s-42.667-19.157-42.667-42.667v-71.68c0-11.776-9.557-21.333-21.333-21.333s-21.333 9.515-21.333 21.333v71.68c0 47.061 38.272 85.333 85.333 85.333s85.333-38.272 85.333-85.333v-71.68c0-11.819-9.557-21.333-21.333-21.333zM512-64c-82.347 0-149.333 66.987-149.333 149.333 0 11.776 9.557 21.333 21.333 21.333s21.333-9.557 21.333-21.333c0-58.795 47.872-106.667 106.667-106.667s106.667 47.872 106.667 106.667c0 11.776 9.557 21.333 21.333 21.333s21.333-9.557 21.333-21.333c0-82.347-66.987-149.333-149.333-149.333zM874.667 64h-725.333c-35.285 0-64 28.715-64 64 0 18.731 8.149 36.437 22.4 48.64 67.243 56.832 105.6 139.52 105.6 227.072v129.621c0 164.693 133.973 298.667 298.667 298.667s298.667-133.973 298.667-298.667v-129.621c0-87.595 38.357-170.24 105.259-226.773 14.592-12.501 22.741-30.208 22.741-48.939 0-35.285-28.672-64-64-64zM512 789.333c-141.184 0-256-114.816-256-256v-129.621c0-100.181-43.861-194.688-120.363-259.371-4.907-4.181-7.637-10.112-7.637-16.341 0-11.776 9.557-21.333 21.333-21.333h725.333c11.776 0 21.333 9.557 21.333 21.333 0 6.229-2.731 12.16-7.467 16.213-76.629 64.811-120.533 159.36-120.533 259.499v129.621c0 141.184-114.816 256-256 256z" />
<glyph unicode="&#xe915;" glyph-name="plus" d="M984.001 488h-432.002v432c0 22.092-17.907 40-40 40s-40-17.908-40-40v-432h-432c-22.092 0-40-17.907-40-40s17.908-40 40-40h432v-432.002c0-22.090 17.907-39.999 40-39.999s40 17.909 40 39.999v432.002h432.002c22.090 0 39.999 17.907 39.999 40s-17.909 40-39.999 40z" />
<glyph unicode="&#xe916;" glyph-name="user" d="M505.472 528.384c119.185 0 215.812 96.625 215.812 215.813s-96.627 215.803-215.812 215.803c-119.189 0-215.805-96.625-215.805-215.812 0.134-119.125 96.679-215.671 215.805-215.804zM505.472 914.286c93.943 0 170.095-76.151 170.095-170.098 0-93.937-76.151-170.089-170.095-170.089-93.939 0-170.091 76.152-170.091 170.089 0.107 93.902 76.196 169.991 170.091 170.098zM511.108 452.369c-221.725 0.085-401.484-179.682-401.395-401.395v-92.117c0-12.625 10.232-22.857 22.857-22.857h757.072c12.625 0 22.857 10.231 22.857 22.857v92.117c0.098 221.713-179.669 401.481-401.391 401.395zM866.786-18.283h-711.358v69.257c-0.321 127.287 67.402 245.035 177.58 308.779 110.179 63.731 246.017 63.731 356.204 0 110.182-63.744 177.903-181.491 177.574-308.779v-69.257z" />
<glyph unicode="&#xe917;" glyph-name="quick_buy" d="M512 960c-282.31 0-512-229.69-512-512 0-282.308 229.69-512 512-512 282.308 0 512 229.692 512 512 0 282.31-229.692 512-512 512zM512-12.843c-254.121 0-460.842 206.72-460.842 460.843 0 254.121 206.721 460.842 460.842 460.842 254.123 0 460.843-206.721 460.843-460.842 0-254.123-206.72-460.843-460.843-460.843zM646.059 572.66l-196.279-195.239-71.622 72.043c-10.023 10.022-26.101 10.022-36.124 0.209-10.023-9.818-10.023-26.103-0.209-36.126l89.579-90.206c5.013-5.013 11.486-7.518 18.167-7.518 6.473 0 12.945 2.505 17.958 7.518l214.447 213.195c10.022 10.023 10.022 26.101 0.209 36.124-10.022 10.023-26.103 10.023-36.126 0z" />
<glyph unicode="&#xe918;" glyph-name="search" d="M1014.306-8.311l-264.385 260.164c69.234 75.218 111.77 174.7 111.77 284.167-0.028 234.172-192.91 423.98-430.861 423.98-237.949 0-430.83-189.808-430.83-423.98s192.881-423.978 430.83-423.978c102.81 0 197.104 35.561 271.173 94.68l265.409-261.188c12.937-12.737 33.929-12.737 46.859 0 12.965 12.737 12.965 33.417 0.034 46.154zM430.83 177.271c-201.331 0-364.541 160.62-364.541 358.749 0 198.131 163.21 358.748 364.541 358.748s364.539-160.617 364.539-358.748c0-198.129-163.209-358.749-364.539-358.749z" />
<glyph unicode="&#xe919;" glyph-name="cart" d="M1002.667 746.667h-981.333c-11.776 0-21.334-9.556-21.334-21.332v-640.001c0-82.347 66.986-149.333 149.334-149.333h725.333c82.347 0 149.333 66.987 149.333 149.333v640.001c0 11.776-9.557 21.332-21.333 21.332zM981.333 85.333c0-58.836-47.828-106.663-106.667-106.663h-725.333c-58.838 0-106.666 47.828-106.666 106.663v618.667h938.665v-618.667zM512 960c-117.63 0-213.333-95.702-213.333-213.334v-149.333c0-11.776 9.558-21.337 21.334-21.337s21.333 9.561 21.333 21.337v149.333c0 94.122 76.544 170.666 170.667 170.666s170.667-76.544 170.667-170.666v-149.333c0-11.776 9.557-21.337 21.333-21.337s21.333 9.561 21.333 21.337v149.333c0 117.632-95.7 213.334-213.333 213.334zM320 618.667c-35.286 0-64-28.713-64-64s28.714-64 64-64c35.287 0 64 28.713 64 64s-28.713 64-64 64zM320 533.333c-11.734 0-21.334 9.602-21.334 21.337 0 11.732 9.6 21.333 21.334 21.333s21.333-9.602 21.333-21.333c0-11.735-9.599-21.337-21.333-21.337zM704 618.667c-35.287 0-64-28.713-64-64s28.713-64 64-64c35.287 0 64 28.713 64 64s-28.713 64-64 64zM704 533.333c-11.735 0-21.333 9.602-21.333 21.337 0 11.732 9.598 21.333 21.333 21.333s21.333-9.602 21.333-21.333c0-11.735-9.598-21.337-21.333-21.337z" />
<glyph unicode="&#xe91a;" glyph-name="star" d="M1001.774 493.906c20.156 19.643 27.273 48.473 18.574 75.273-8.715 26.799-31.414 45.93-59.295 49.99l-247.945 36.027c-10.559 1.538-19.684 8.161-24.4 17.737l-110.848 224.669c-12.447 25.241-37.708 40.927-65.861 40.927-28.133 0-53.394-15.686-65.84-40.927l-110.868-224.669c-4.716-9.576-13.861-16.199-24.421-17.737l-247.942-36.047c-27.866-4.039-50.564-23.17-59.279-49.969-8.694-26.8-1.579-55.629 18.577-75.273l179.395-174.862c7.648-7.464 11.154-18.21 9.35-28.706l-42.342-246.938c-4.757-27.745 6.418-55.239 29.199-71.811 22.76-16.583 52.389-18.739 77.343-5.598l221.737 116.594c9.453 4.961 20.73 4.961 30.183 0l221.755-116.594c10.832-5.7 22.556-8.505 34.224-8.505 15.155 0 30.242 4.733 43.122 14.103 22.778 16.572 33.957 44.066 29.201 71.811l-42.365 246.915c-1.803 10.519 1.701 21.242 9.353 28.706l179.393 174.884zM772.631 283.386l42.342-246.915c2.133-12.43-2.685-24.303-12.897-31.721-10.229-7.407-22.966-8.306-34.139-2.48l-221.757 116.605c-10.683 5.598-22.453 8.431-34.181 8.431s-23.478-2.833-34.181-8.448l-221.716-116.588c-11.216-5.825-23.95-4.927-34.161 2.48-10.212 7.418-15.010 19.274-12.897 31.721l42.342 246.915c4.081 23.825-3.814 48.145-21.12 65.001l-179.415 174.881c-9.043 8.817-12.118 21.243-8.202 33.238 3.896 12.016 13.677 20.259 26.164 22.084l247.921 36.027c23.929 3.465 44.618 18.475 55.301 40.168l110.868 224.669c5.577 11.319 16.465 18.064 29.076 18.064 12.63 0 23.498-6.746 29.096-18.064l110.866-224.669c10.684-21.693 31.351-36.703 55.285-40.168l247.939-36.027c12.487-1.825 22.266-10.068 26.163-22.084 3.897-11.995 0.842-24.421-8.198-33.238l-179.399-174.864c-17.306-16.873-25.196-41.17-21.1-65.018z" />
<glyph unicode="&#xe91b;" glyph-name="checkbox" d="M970.105 906.105v-700.632c0-119.059-96.52-215.579-215.579-215.579h-700.632v916.211h916.211zM0 960v-1024h754.526c148.825 0 269.474 120.649 269.474 269.474v754.526h-1024z" />
<glyph unicode="&#xe91c;" glyph-name="phone" d="M208.66 279.313c101-120.734 222.58-215.791 361.35-283.055 52.834-25.037 123.49-54.741 202.21-59.836 4.881-0.209 9.549-0.422 14.43-0.422 52.834 0 95.27 18.249 129.856 55.804 0.213 0.213 0.636 0.636 0.849 1.062 12.305 14.852 26.313 28.22 40.951 42.436 9.971 9.549 20.156 19.52 29.918 29.705 45.197 47.104 45.197 106.94-0.422 152.563l-127.526 127.522c-21.641 22.49-47.526 34.372-74.688 34.372-27.157 0-53.257-11.883-75.537-34.163l-75.959-75.959c-7.002 4.032-14.217 7.637-21.009 11.034-8.486 4.241-16.337 8.273-23.339 12.732-69.171 43.921-131.981 101.21-192.027 174.839-30.342 38.404-50.712 70.656-64.928 103.544 19.945 18.036 38.617 36.92 56.653 55.38 6.366 6.578 12.943 13.155 19.521 19.733 22.915 22.916 35.224 49.439 35.224 76.386s-12.096 53.47-35.224 76.386l-63.231 63.231c-7.426 7.427-14.429 14.641-21.643 22.067-14.004 14.429-28.645 29.282-43.073 42.649-21.855 21.431-47.529 32.676-74.689 32.676-26.947 0-52.834-11.246-75.537-32.889l-79.357-79.357c-28.857-28.857-45.195-63.867-48.59-104.395-4.031-50.712 5.305-104.607 29.494-169.747 37.132-100.789 93.149-194.362 176.325-294.3zM54.615 738.904c2.546 28.221 13.367 51.773 33.737 72.143l78.932 78.932c12.306 11.882 25.886 18.036 39.042 18.036 12.943 0 26.099-6.153 38.193-18.46 14.217-13.155 27.584-26.947 42.013-41.588 7.214-7.426 14.641-14.853 22.067-22.491l63.231-63.231c13.155-13.155 19.945-26.523 19.945-39.679s-6.79-26.523-19.945-39.678c-6.578-6.577-13.155-13.367-19.733-19.945-19.733-19.945-38.193-38.83-58.563-56.865-0.425-0.424-0.637-0.637-1.061-1.061-17.611-17.612-14.853-34.374-10.609-47.105 0.212-0.637 0.425-1.061 0.637-1.698 16.338-39.256 39.042-76.598 74.476-121.159 63.655-78.507 130.708-139.405 204.547-186.295 9.122-5.943 18.884-10.611 28.006-15.279 8.486-4.241 16.337-8.273 23.343-12.727 0.845-0.427 1.485-0.849 2.334-1.276 7.002-3.605 13.79-5.303 20.578-5.303 16.977 0 28.011 10.82 31.616 14.43l79.36 79.356c12.305 12.305 25.673 18.884 38.827 18.884 16.128 0 29.282-9.975 37.559-18.884l127.945-127.735c25.463-25.463 25.25-53.047-0.636-79.996-8.913-9.545-18.249-18.671-28.22-28.22-14.852-14.426-30.345-29.282-44.348-46.042-24.401-26.313-53.47-38.618-91.025-38.618-3.61 0-7.428 0.213-11.034 0.422-69.598 4.459-134.315 31.616-182.903 54.746-131.981 63.868-247.831 154.47-343.951 269.474-79.145 95.27-132.403 183.962-167.625 279.020-21.855 58.351-30.13 105.243-26.735 147.892z" />
<glyph unicode="&#xe91d;" glyph-name="tick_down" d="M0.25 692.677c-0.023 12.291 9.925 22.273 22.216 22.295 5.925 0.010 11.611-2.343 15.796-6.539l473.85-473.892 473.846 473.892c8.704 8.702 22.812 8.702 31.516 0 8.698-8.702 8.698-22.81 0-31.512l-489.609-489.609c-8.69-8.687-22.777-8.687-31.469 0l-489.605 489.609c-4.187 4.172-6.543 9.843-6.543 15.756z" />
<glyph unicode="&#xe91e;" glyph-name="tick_left" d="M756.662 959.75c12.294 0.023 22.272-9.925 22.295-22.216 0.011-5.925-2.344-11.611-6.537-15.796l-473.895-473.85 473.895-473.846c8.704-8.704 8.704-22.812 0-31.516-8.704-8.698-22.812-8.698-31.511 0l-489.61 489.609c-8.688 8.69-8.688 22.777 0 31.469l489.604 489.605c4.176 4.187 9.847 6.543 15.758 6.543z" />
<glyph unicode="&#xe91f;" glyph-name="tick_right" d="M267.337-63.75c-12.291-0.023-22.272 9.927-22.295 22.215-0.010 5.928 2.343 11.611 6.539 15.798l473.895 473.849-473.895 473.848c-8.702 8.702-8.702 22.81 0 31.513s22.811 8.702 31.513 0l489.606-489.607c8.687-8.69 8.687-22.777 0-31.469l-489.606-489.605c-4.173-4.187-9.843-6.542-15.757-6.542z" />
<glyph unicode="&#xe920;" glyph-name="tick_up" d="M1023.75 203.323c0.023-12.291-9.925-22.273-22.216-22.295-5.925-0.010-11.611 2.343-15.796 6.539l-473.85 473.892-473.846-473.892c-8.704-8.702-22.812-8.702-31.516 0-8.698 8.702-8.698 22.81 0 31.512l489.609 489.609c8.69 8.687 22.777 8.687 31.469 0l489.605-489.609c4.187-4.172 6.543-9.843 6.543-15.756z" />
<glyph unicode="&#xe921;" glyph-name="time" d="M512 960c-282.312 0-512-229.688-512-512 0-282.308 229.688-512 512-512 282.308 0 512 229.692 512 512 0 282.312-229.687 512-512 512zM512-19.477c-257.782 0-467.479 209.698-467.479 467.477 0 257.782 209.697 467.479 467.479 467.479 257.779 0 467.477-209.697 467.477-467.479 0-257.779-209.698-467.477-467.477-467.477zM728.111 263.373l-193.847 193.847v346.956c0 12.288-9.975 22.262-22.263 22.262s-22.259-9.974-22.259-22.262v-356.176c0-5.918 2.359-11.575 6.498-15.761l200.35-200.346c4.365-4.318 10.061-6.502 15.761-6.502s11.396 2.185 15.761 6.502c8.678 8.683 8.678 22.797 0 31.479z" />
<glyph unicode="&#xe922;" glyph-name="check" d="M1017.76 783.101c-8.322 8.32-21.845 8.32-30.167 0l-624.908-624.955-326.278 326.239c-8.32 8.32-21.846 8.32-30.167 0s-8.32-21.847 0-30.167l341.341-341.339c4.182-4.137 9.642-6.233 15.104-6.233s10.922 2.089 15.062 6.274l640.013 640.013c8.315 8.322 8.315 21.849 0 30.168z" />
<glyph unicode="&#xe923;" glyph-name="iokassa" d="M534.328 502.665h-33.107l-23.483-41.191h-11.934l-0.385 88.926h-31.182v-160.914h31.182l0.385 44.271h11.934l31.182-44.271h34.647l-40.421 58.514 31.182 54.665zM771.080 449.54c-6.544 4.235-13.089 7.314-20.403 9.624l-6.929 2.695-1.925 0.77c-4.235 1.54-8.854 3.465-8.854 7.699 0 1.155 0.385 2.695 0.77 3.85 0.77 1.155 1.54 2.31 2.695 2.695 2.31 1.54 5.005 2.31 7.699 2.695 6.159 0.385 11.934-1.54 16.553-5.005l0.77-0.385 16.553 19.248-0.77 0.77c-1.925 1.925-4.235 3.465-6.929 5.005-4.235 2.31-8.854 4.235-13.859 5.005-6.929 1.54-14.244 1.54-21.173 0-6.929-0.77-13.089-3.465-18.863-7.699-3.465-2.695-6.544-6.159-8.469-10.009-2.31-3.85-3.465-8.084-4.235-12.704-0.77-8.084 1.155-16.168 5.774-22.713 6.159-6.929 14.244-11.549 23.098-13.859l1.54-0.385 3.080-1.155c11.549-3.85 14.629-5.389 16.553-7.699 0.77-1.155 1.155-2.695 1.54-3.85 0-5.389-6.544-7.699-11.164-9.239-3.080-0.77-6.544-0.385-9.624 0-3.080 0.77-6.159 1.925-8.854 3.85-4.235 2.695-7.699 6.544-10.779 10.779-1.925-1.925-19.248-18.863-18.863-19.248l0.385-0.77c8.469-10.394 20.018-17.708 33.107-20.403 3.080-0.77 6.159-1.155 9.239-1.155h3.080c10.394-0.385 20.403 3.080 28.872 8.854 5.774 3.85 10.009 9.624 12.319 16.168 1.54 4.235 1.925 8.854 1.54 13.474s-1.925 8.854-4.235 13.089c-2.31 4.235-5.389 7.314-9.239 10.009v0zM872.325 449.54c-6.159 4.235-13.089 7.314-20.403 9.624l-6.929 2.695-1.925 0.77c-4.235 1.54-8.854 3.465-9.239 7.699 0 1.155 0.385 2.695 0.77 3.85 0.77 1.155 1.54 2.31 2.695 3.080 2.31 1.54 5.005 2.31 7.699 2.695 6.159 0.385 11.934-1.54 16.553-5.005l0.77-0.385 16.553 19.248-0.77 0.77c-1.925 1.925-4.235 3.465-6.929 5.005-4.235 2.31-8.854 4.235-13.859 5.005-6.929 1.54-14.244 1.54-21.558 0-6.929-0.77-13.089-3.465-18.863-7.699-3.465-2.695-6.544-6.159-8.854-10.009s-3.465-8.084-4.235-12.704c-1.155-8.084 1.155-16.168 5.774-22.713 6.159-6.929 14.244-11.549 23.098-13.859l1.155-0.385 3.080-1.155c11.549-3.85 14.629-5.389 16.553-7.699 0.77-1.155 1.155-2.695 1.155-3.85 0-5.389-6.544-7.699-11.164-9.239-3.080-0.77-6.544-0.385-9.624 0-3.080 0.77-6.159 1.925-8.854 3.85-4.235 2.695-7.699 6.544-10.779 10.779-1.54-1.925-18.863-18.863-18.863-19.248l0.77-0.77c8.469-10.394 20.018-17.708 33.107-20.403 3.080-0.77 6.159-1.155 9.239-1.155h3.080c10.394-0.385 20.403 3.080 28.872 8.854 5.774 3.85 10.009 9.624 12.319 16.168 1.54 4.235 1.925 8.854 1.54 13.474s-1.925 8.854-4.235 13.089c-0.77 3.85-3.85 6.929-7.699 9.624v0zM637.113 502.665v-11.164h-1.54c-8.469 8.469-20.018 13.474-32.337 13.474-7.314 0-14.629-1.155-21.558-4.235s-13.089-7.314-18.093-12.704c-10.394-11.549-15.783-26.562-15.398-41.576-0.385-15.783 5.005-30.797 15.398-42.731 5.005-5.389 11.164-9.624 17.708-12.704 6.929-2.695 14.244-4.235 21.558-4.235 12.319 0.385 23.868 4.62 33.107 12.704h1.155v-10.009h32.722v113.179h-32.722zM638.653 445.69c0.385-9.239-2.695-18.093-8.469-25.023-2.695-3.080-6.159-5.774-10.009-7.314s-8.084-2.31-12.319-2.31c-4.235 0-8.084 0.77-11.934 2.31s-6.929 4.235-9.624 7.314c-5.774 7.314-8.854 16.168-8.469 25.408-0.385 8.854 2.695 17.708 8.469 24.253 2.695 3.080 5.774 5.389 9.624 7.314 3.85 1.54 7.699 2.695 11.934 2.31 4.235 0 8.469-0.77 11.934-2.31 3.85-1.54 7.314-4.235 10.009-7.314 6.159-6.544 9.239-15.398 8.854-24.638zM990.893 502.665v-11.164h-1.54c-8.469 8.469-20.018 13.474-32.337 13.474-7.314 0-15.014-1.155-21.558-4.235-6.929-3.080-13.089-7.314-18.093-12.704-10.394-11.549-15.783-26.562-15.398-41.576-0.385-15.783 5.005-30.797 15.398-42.731 5.005-5.389 11.164-9.624 17.708-12.704 6.929-2.695 14.244-4.235 21.558-4.235 12.319 0.385 23.868 4.62 33.107 12.704h1.155v-10.009h32.722v113.179h-32.722zM992.433 445.69c0.385-9.239-2.695-18.093-8.469-25.023-2.695-3.080-6.159-5.774-10.009-7.314s-8.084-2.31-12.319-2.31c-4.235 0-8.084 0.77-11.934 2.31s-6.929 4.235-9.624 7.314c-5.774 7.314-8.854 16.168-8.469 25.408-0.385 8.854 2.695 17.708 8.469 24.253 2.695 3.080 5.774 5.389 9.624 7.314 3.85 1.54 7.699 2.695 11.934 2.31 4.235 0 8.469-0.77 11.934-2.31s7.314-4.235 10.009-7.314c6.159-6.544 9.239-15.398 8.854-24.638zM220.198 569.263c-67.368 0-121.263-54.665-121.263-121.263 0-67.368 54.665-121.263 121.263-121.263s121.263 54.665 121.263 121.263-54.28 121.263-121.263 121.263zM220.198 403.344c-24.638 0-45.426 20.788-45.426 45.426s20.788 45.426 45.426 45.426c24.638 0 45.426-20.788 45.426-45.426-0.77-25.408-20.788-45.426-45.426-45.426zM98.165 534.617v-176.698h-42.731l-55.435 176.698h98.165z" />
<glyph unicode="&#xe924;" glyph-name="iomoney" d="M992.361 496.308l-23.814-58.174c-0.68-0.68-0.68-2.041-0.68-2.722l-0.68-1.361-0.68 1.361c0 0.68-0.68 2.041-0.68 2.722l-23.814 58.174h-30.618l40.144-99.678-17.010-38.102h30.618l56.133 137.781h-28.917zM767.15 490.865c-5.443 4.082-12.247 6.804-20.412 7.484-13.608 1.361-26.536-3.402-35.381-12.247v10.886h-27.556v-99.678h27.896v52.050c0 11.567 2.041 14.969 4.082 17.69 3.402 5.443 9.526 8.165 17.010 8.165s14.288-3.402 17.69-8.845c2.041-4.082 2.722-9.526 2.722-12.247 0-8.845 0-56.813 0-56.813h27.896v60.215c-0.34 15.649-4.423 26.536-13.948 33.34zM631.41 495.628c-13.608 4.763-28.577 4.082-42.185-2.041-8.845-4.082-17.010-10.886-21.773-19.732-4.763-7.484-6.804-17.010-6.804-27.216s2.041-19.732 6.804-27.216c4.763-7.484 10.886-14.288 19.051-18.371s17.69-6.804 26.536-6.804c4.763 0 9.526 0.68 14.288 2.041 4.082 1.361 8.165 2.722 12.247 4.763 8.165 4.763 14.969 10.886 19.051 18.371 4.763 7.484 6.804 17.010 6.804 27.216 0 22.453-12.928 41.504-34.020 48.989zM638.894 445.278c-0.68-8.845-3.402-16.33-8.845-21.092-4.082-3.402-10.206-5.443-17.69-6.124-7.484 0-12.928 2.041-17.69 6.124-5.443 4.763-8.165 12.247-8.845 21.092-0.68 10.206 3.402 18.371 10.886 23.814 4.082 2.722 9.526 4.763 14.969 4.763 6.124 0 10.886-2.041 15.649-4.763 8.165-4.763 12.247-13.608 11.567-23.814zM528.33 490.865c-5.443 4.082-12.247 6.804-20.412 7.484-1.361 0-3.402 0-4.763 0-10.886 0-20.412-4.763-28.577-14.288l-1.361-2.041h-2.722c-2.041 3.402-4.763 6.124-7.484 8.165-5.443 4.082-12.247 6.804-20.412 7.484-12.928 1.361-23.134-2.722-31.979-12.247v10.206h-27.896v-99.678h27.896v53.411c0 10.886 1.361 13.608 3.402 17.010 3.402 5.443 9.526 8.845 16.33 8.165 6.804 0 12.928-3.402 16.33-8.845 2.722-4.082 2.722-8.845 2.722-13.608v-55.452h27.896v53.411c0 10.206 1.361 13.608 3.402 17.010 3.402 5.443 9.526 8.165 16.33 8.165s12.247-3.402 15.649-8.845c2.041-3.402 2.722-7.484 2.722-10.206 0-1.361 0-2.722 0-3.402v-55.452h27.896v60.896c0 5.443-0.68 10.886-2.041 15.649-2.722 6.804-6.804 12.928-12.928 17.010zM885.199 426.908c-4.082-4.082-13.608-11.567-26.536-12.247-10.886-0.68-19.051 2.722-25.175 8.845-2.722 2.722-4.763 6.804-6.124 10.886h76.545v0.68c0.68 4.082 1.361 7.484 1.361 11.567 0 3.402-0.68 8.165-2.041 14.288-3.402 11.567-10.206 20.412-19.051 27.216-10.206 7.484-19.732 9.526-22.453 9.526-19.732 3.402-42.185-5.443-53.751-23.814-8.165-12.928-7.484-25.855-7.484-29.938 0-4.763 0.68-19.732 12.928-33.34 14.288-15.649 34.020-16.33 40.144-17.010 27.216-0.68 45.587 16.33 49.669 19.732l-18.031 13.608zM837.571 469.092c4.082 2.722 8.845 4.763 14.969 4.763s10.886-2.041 15.649-4.763c4.082-3.402 7.484-7.484 9.526-12.247h-48.989c1.361 4.763 4.082 9.526 8.845 12.247zM194.594 555.163c-59.535 0-107.163-48.308-107.163-107.163 0-59.535 48.308-107.163 107.163-107.163s107.163 48.308 107.163 107.163-47.968 107.163-107.163 107.163zM194.594 408.537c-21.773 0-40.144 18.371-40.144 40.144s18.371 40.144 40.144 40.144c21.773 0 40.144-18.371 40.144-40.144-0.68-22.453-18.371-40.144-40.144-40.144zM86.751 524.545v-156.151h-37.762l-48.989 156.151h86.751z" />
<glyph unicode="&#xe925;" glyph-name="mastercard" d="M327.68 775.68c-180.675 0-327.68-147.005-327.68-327.68s147.005-327.68 327.68-327.68c68.306 0 131.763 21.061 184.32 56.96 52.55-35.881 116.004-56.96 184.32-56.96 180.73 0 327.68 146.95 327.68 327.68s-146.95 327.68-327.68 327.68c-68.316 0-131.77-21.079-184.32-56.96-52.557 35.899-116.014 56.96-184.32 56.96zM696.32 734.72c158.594 0 286.72-128.126 286.72-286.72s-128.126-286.72-286.72-286.72c-55.311 0-106.724 15.854-150.48 42.88 67.040 60.044 109.52 146.978 109.52 243.84s-42.48 183.796-109.52 243.84c43.756 27.026 95.169 42.88 150.48 42.88z" />
<glyph unicode="&#xe926;" glyph-name="mir" d="M276.66 591.719s-39.523 0-50.302-37.726c-10.779-34.133-37.726-131.144-39.523-132.94h-7.186s-28.744 97.011-37.726 132.94c-10.779 37.726-50.302 37.726-50.302 37.726h-91.621v-287.439h91.621v170.667h7.186l53.895-170.667h62.877l53.895 170.667h7.186v-170.667h91.621v287.439h-91.621zM609.011 591.719s-26.947-1.796-39.523-30.54l-64.674-140.126h-7.186v170.667h-91.621v-287.439h86.232s28.744 1.796 41.319 30.54l62.877 140.126h7.186v-170.667h91.621v287.439h-86.232zM734.765 460.575v-156.295h91.621v91.621h98.807c43.116 0 79.046 26.947 93.418 64.674h-283.846zM925.193 591.719h-203.004c10.779-53.895 52.098-98.807 104.196-113.179 12.575-3.593 25.151-5.389 37.726-5.389h156.295c3.593 7.186 3.593 14.372 3.593 21.558 0 53.895-44.912 97.011-98.807 97.011z" />
<glyph unicode="&#xe927;" glyph-name="qiwi" d="M481.28 960c-254.095 0-460.8-206.705-460.8-460.8s206.705-460.8 460.8-460.8c53.146 0 90.841 6.055 124.080 11.4 29.041 4.669 56.451 9.080 90.96 9.080 167.219 0 270.316-114.753 271.32-115.92 4.014-4.547 9.686-6.92 15.4-6.92 3.809 0 7.661 1.028 11.040 3.24 8.52 5.468 11.756 16.324 7.64 25.56-2.253 5.079-57.892 125.090-280.96 176.72l-6.080 1.68c-55.132 13.64-99.655 35.852-132.28 66.040-42.148 38.953-50.199 78.274-50.24 78.52-1.884 10.424-11.637 17.641-22 16.76-10.568-0.963-18.64-9.791-18.64-20.4 0-2.089 0.133-42.819 7.24-81.28-6.103-0.43-11.889-0.64-17.48-0.64-163.738 0-296.96 133.222-296.96 296.96s133.222 296.96 296.96 296.96c163.738 0 296.96-133.222 296.96-296.96 0-12.206-0.764-24.552-2.32-36.84-38.625 6.103-77.040 6.12-79.6 6.12-11.919 0-20.48-10.23-20.48-20.88 0.246-11.121 9.319-20.060 20.44-20.080 0.41 0 43.026-0.405 81.16-24.92 63.222-40.632 78.357-101.988 78.48-102.52 1.905-8.438 8.918-14.736 17.52-15.76 8.54-0.881 16.91 3.478 20.76 11.24 31.764 64.205 47.88 132.738 47.88 203.64 0 254.095-206.705 460.8-460.8 460.8zM791.24 304.6c-5.019 0.306-8.93-1.877-11.080-5.64-4.342-7.598-1.105-22.653 7.64-35.76 8.868-13.271 16.38-20 22.36-20 5.489 0 10.98 6.871 8.4 23.48-1.536 9.912-7.317 31.456-21.96 36.76-1.894 0.686-3.687 1.058-5.36 1.16zM724.32 243.2c-9.196 0-16.85-2.392-21.56-7-12.083-11.837-6.653-32.639 11.84-45.48 8.090-5.591 19.713-8.96 31.12-8.96 11.612 0 21.319 3.473 27.32 9.76 10.752 11.469 4.577 27.7-15.76 41.36-10.076 6.758-21.798 10.32-32.96 10.32z" />
<glyph unicode="&#xe928;" glyph-name="sber" d="M686.88 905.72l-359.2-205.4-158.52 90.72c-9.83-10.035-18.843-20.666-27.24-31.52l185.76-106.52 404.68 231.64c-14.746 7.987-29.915 14.936-45.48 21.080zM795.24 844.92l-467.56-267.48-222.84 127.6c-6.963-11.674-13.306-23.792-19.040-36.080l241.88-138.84 501.16 286.72c-10.65 9.83-21.926 19.069-33.6 28.080zM875.52 767.88l-547.84-313.32-265.84 152.36c-4.301-13.312-7.773-27.034-10.64-40.96l276.48-158.72 572.64 327.68c-7.782 11.264-15.994 22.31-24.8 32.96zM936.28 673.28l-608.6-348.16-285.76 163.84c-0.328-6.82-0.96-13.578-0.96-20.48 0-260.157 210.883-471.040 471.040-471.040s471.040 210.883 471.040 471.040c0 73.4-16.798 142.868-46.76 204.8z" />
<glyph unicode="&#xe929;" glyph-name="visa" d="M85.333 789.333v-682.667h853.333v682.667h-853.333zM613.917 576c26.453 0 57.333-13.25 57.333-13.25l-13.25-52.917c0 0-22.067 17.667-44.083 17.667-30.848 0-39.667-13.273-39.667-26.5 0-30.848 88.167-35.178 88.167-96.917-0.043-52.821-61.737-88.104-101.417-83.667-44.075 0-66.083 13.167-66.083 13.167l8.833 52.917c0 0 26.424-13.25 61.667-13.25s39.667 13.294 39.667 22.083c0 39.68-88.167 26.433-88.167 105.75 0 39.68 30.867 74.917 97 74.917zM336.25 571.583h61.667l-92.583-246.833h-66.083l-48.5 198.333c0 0 52.902-30.827 83.75-105.75 0-8.832 4.417-22.083 4.417-22.083l57.333 176.333zM763.75 571.583h66.083l48.5-246.833h-52.917l-8.833 35.25h-79.333l-13.167-35.25h-61.75l101.417 246.833zM424.333 567.25h66.083l-39.667-246.833h-61.667l35.25 246.833zM115.833 567.167h97c26.453 0 35.25-22 35.25-22l22-110.167c-26.453 92.544-154.25 132.167-154.25 132.167zM785.75 496.667l-35.25-92.583h52.833l-17.583 92.583z" />
<glyph unicode="&#xe92a;" glyph-name="walletone" d="M984.4 643.8v-393.6c-8.6-20.2-18.2-39.8-29.2-58.8-11.8-8.8-26.6-14-42.6-14-39.6 0-71.8 32.2-71.8 71.8v223.2l-278.4-274.4c-13.6-13.6-31.8-20.6-50.4-20.6-9.4 0-18.8 1.8-27.6 5.6-26.6 11.2-44 37.2-44 66.2v223.2l-278.6-274.4c-20.6-20.2-35.8-30.6-71.8-28-5.4 2.2-29.4 2.6-41.4 21.4-11.8 18.4-8 33.4-9 58.8v396.6c0 23.8 11.6 44.8 29.2 57.8 11.8 8.8 26.6 14 42.4 14 39.6 0 71.8-32.2 71.8-71.8v-226.2s275.4 274.2 277.2 276c13 13.6 31.4 22 51.6 22 39.6 0 71.8-32.2 71.8-71.8v-226.2l278.6 274.4c20.6 20.2 51.4 26.2 78 15 6.6-2.8 12.6-6.4 17.8-10.8 15.8-13 25.6-32.2 26.2-53.4 0.2-0.6 0.2-1.2 0.2-2zM984.4 643.8v-393.6c0.2-28.2-3.6-42.8-25-61.4-11.8-8.8-30.8-11.2-46.6-11.2-39.6 0-71.8 32.2-71.8 71.8v223l-18-17.8c-28.2-27.8-73.6-27.4-101.4 0.8s-27.4 73.6 0.8 101.4l140 138c20.6 20.2 51.4 26.2 78 15 6.6-2.8 12.6-6.4 17.8-10.8 15.8-13 25.6-32.2 26.2-53.4v-1.8z" />
<glyph unicode="&#xe92b;" glyph-name="webmoney" d="M499.48 918.36c-132.123-2.909-269.934-60.946-365.64-189.56-154.952-208.323-114.075-496.404 93.080-655.8 87.962-67.686 188.241-96.72 283.76-96.72 104.509 0 202.984 35.066 273.64 92l0.96-1.12 30.76 27.040-104.24 118.68-43.44-39.8c-22.958-20.931-45.075-41.113-66.64-61.88-34.857 39.793-70.212 79.196-105.52 118.6-17.019 18.985-34.022 37.994-51 57.040-0.983 1.085-1.918 2.213-2.84 3.36l49.76 46.52-128.12 144.68 50.16 47-130.2 144.96 177.24 160.12 65.44-70.8 108.44 96.28c0.922-0.287 1.798-0.593 2.72-0.88l62.040-67.96 58 53.080c0 0-15.345 14.245-30.48 22.56-2.314 1.27-4.472 1.62-6.52 1.6-64.865 34.629-142.086 52.746-221.36 51zM791.92 811.56l-51.8-47.4 46.72-51.84 52 46.76-46.92 52.48zM634.28 797.56l-80.12-72.8 72.080-80.080 80 72.24-71.96 80.64zM456.12 768.080l-108.040-97.88 97.48-108.44 108.28 97.76-97.72 108.56zM863.36 643.88l-51.64-47.040 47.080-52.080 52.040 47.2-47.48 51.92zM711.76 627.44l-80-72.52 72.040-80.4 80.2 72.52-72.24 80.4zM536.52 575.76l-108.080-98.12 97.68-108.44 107.76 98-97.36 108.56zM935.36 476.32l-51.92-46.72 47.12-52.080 52.040 46.84-47.24 51.96zM783.76 448.68l-80-72.32 72.12-80.52 80.080 72.68-72.2 80.16zM616.36 380.84l-108.040-97.72 97.24-108.72 108.44 97.88-97.64 108.56zM857.48 277.92l-79.68-72.64 72.2-79.92 80.24 72.32-72.76 80.24z" />
<glyph unicode="&#xe92c;" glyph-name="facebook" d="M682.539 789.973h93.483v162.816c-16.128 2.219-71.595 7.211-136.192 7.211-134.784 0-227.115-84.779-227.115-240.597v-143.403h-148.736v-182.016h148.736v-457.984h182.357v457.941h142.72l22.656 182.016h-165.419v125.397c0.043 52.608 14.208 88.619 87.509 88.619z" />
<glyph unicode="&#xe92d;" glyph-name="instagram" d="M512.171 710.912c-145.195 0-262.741-117.675-262.741-262.741 0-145.195 117.675-262.741 262.741-262.741 145.195 0 262.741 117.675 262.741 262.741 0 145.195-117.675 262.741-262.741 262.741zM512.171 277.632c-94.251 0-170.539 76.331-170.539 170.539s76.331 170.539 170.539 170.539 170.539-76.331 170.539-170.539c0.043-94.208-76.288-170.539-170.539-170.539zM723.115 956.757c-94.208 4.395-327.552 4.181-421.845 0-82.859-3.883-155.947-23.893-214.869-82.816-98.475-98.475-85.888-231.168-85.888-425.771 0-199.168-11.093-328.789 85.888-425.771 98.859-98.816 233.472-85.888 425.771-85.888 197.291 0 265.387-0.128 335.147 26.88 94.848 36.821 166.443 121.6 173.44 273.877 4.437 94.251 4.181 327.552 0 421.845-8.448 179.755-104.917 288.768-297.643 297.643zM872.235 87.552c-64.555-64.555-154.112-58.795-361.301-58.795-213.333 0-298.88-3.157-361.301 59.435-71.893 71.552-58.88 186.453-58.88 360.661 0 235.733-24.192 405.504 212.395 417.621 54.357 1.92 70.357 2.56 207.189 2.56l1.92-1.28c227.371 0 405.76 23.808 416.469-212.736 2.432-53.973 2.987-70.187 2.987-206.805-0.043-210.859 3.968-296.917-59.477-360.661zM846.72 721.28c0-33.909-27.489-61.397-61.397-61.397s-61.397 27.489-61.397 61.397c0 33.909 27.489 61.397 61.397 61.397s61.397-27.489 61.397-61.397z" />
<glyph unicode="&#xe92e;" glyph-name="odnoklassniki" d="M201.429 410.411c-26.155-51.413 3.541-75.989 71.296-117.973 57.6-35.584 137.173-48.597 188.288-53.803-20.949-20.139 75.051 72.192-201.429-193.749-58.624-56.192 35.755-146.347 94.336-91.349l158.592 152.96c60.715-58.411 118.912-114.389 158.592-153.173 58.624-55.211 152.96 34.176 94.976 91.349-4.352 4.139-214.912 206.123-202.069 193.749 51.755 5.205 130.133 18.987 187.051 53.803l-0.043 0.043c67.755 42.197 97.451 66.731 71.68 118.144-15.573 29.184-57.557 53.589-113.451 11.392 0 0-75.477-57.813-197.205-57.813-121.771 0-197.205 57.813-197.205 57.813-55.851 42.411-98.005 17.792-113.408-11.392zM511.957 441.941c148.395 0 269.568 115.968 269.568 258.731 0 143.36-121.173 259.328-269.568 259.328-148.437 0-269.611-115.968-269.611-259.328 0-142.763 121.173-258.731 269.611-258.731zM511.957 828.629c72.917 0 132.395-57.216 132.395-127.957 0-70.144-59.477-127.36-132.395-127.36s-132.395 57.216-132.395 127.36c-0.043 70.784 59.435 127.957 132.395 127.957z" />
<glyph unicode="&#xe92f;" glyph-name="skype" d="M994.517 339.328c74.155 333.227-217.771 635.947-560.597 577.835-186.112 115.499-433.92-15.019-433.92-236.459 0-51.499 14.208-99.712 38.912-141.269-68.907-333.995 225.408-632.363 567.936-570.283 242.133-128.043 509.696 127.317 387.669 370.176zM668.629 138.368c-89.941-36.992-237.952-37.205-327.509 9.685-127.701 68.096-150.4 221.397-40.235 221.397 83.029 0 56.747-96.811 140.587-136.277 38.485-17.792 121.216-19.627 169.301 12.8 47.488 31.787 43.136 81.792 17.323 105.685-68.395 63.147-264.107 38.059-353.579 148.608-38.869 47.957-46.208 132.565 1.579 193.92 83.285 107.179 327.68 113.707 432.768 32.768 97.024-75.093 70.827-174.763-7.467-174.763-94.165 0-44.672 123.221-196.693 123.221-110.208 0-153.557-78.379-75.947-116.523 105.216-52.267 373.333-34.816 373.333-239.061-0.213-84.992-52.309-148.352-133.461-181.461z" />
<glyph unicode="&#xe930;" glyph-name="telegram" d="M401.792 312.277l-16.939-238.251c24.235 0 34.731 10.411 47.317 22.912l113.621 108.587 235.435-172.416c43.179-24.064 73.6-11.392 85.248 39.723l154.539 724.139 0.043 0.043c13.696 63.829-23.083 88.789-65.152 73.131l-908.373-347.776c-61.995-24.064-61.056-58.624-10.539-74.283l232.235-72.235 539.435 337.536c25.387 16.811 48.469 7.509 29.483-9.301z" />
<glyph unicode="&#xe931;" glyph-name="tiktok" d="M960.64 703.22c-58.44 0-112.36 19.36-155.66 52.020-49.66 37.44-85.34 92.36-97.94 155.66-3.12 15.64-4.8 31.78-4.96 48.32h-166.94v-456.16l-0.2-249.86c0-66.8-43.5-123.44-103.8-143.36-17.5-5.78-36.4-8.52-56.080-7.44-25.12 1.38-48.66 8.96-69.12 21.2-43.54 26.040-73.060 73.28-73.86 127.32-1.26 84.46 67.020 153.32 151.42 153.32 16.66 0 32.66-2.72 47.64-7.66v169.5c-15.8 2.34-31.88 3.56-48.14 3.56-92.38 0-178.78-38.4-240.54-107.58-46.68-52.28-74.68-118.98-79-188.92-5.66-91.88 27.96-179.22 93.16-243.66 9.58-9.46 19.64-18.24 30.16-26.34 55.9-43.020 124.24-66.34 196.22-66.34 16.26 0 32.34 1.2 48.14 3.54 67.24 9.96 129.28 40.74 178.24 89.14 60.16 59.46 93.4 138.4 93.76 222.42l-0.86 373.12c28.7-22.14 60.080-40.46 93.76-54.68 52.38-22.1 107.92-33.3 165.080-33.28v166.2c0.040-0.040-0.44-0.040-0.48-0.040z" />
<glyph unicode="&#xe932;" glyph-name="twitter" d="M918.784 656.512c41.643 29.568 76.672 66.475 105.216 108.971v0.043c-38.101-16.683-78.635-27.776-120.96-33.152 43.52 25.984 76.757 66.816 92.373 116.011-40.576-24.192-85.376-41.259-133.12-50.816-38.528 41.045-93.44 66.432-153.344 66.432-116.224 0-209.792-94.336-209.792-209.963 0-16.64 1.408-32.64 4.864-47.872-174.507 8.533-328.96 92.16-432.725 219.605-18.091-31.445-28.757-67.413-28.757-106.112 0-72.704 37.419-137.131 93.269-174.464-33.749 0.64-66.816 10.453-94.848 25.856v-2.304c0-102.016 72.747-186.752 168.192-206.293-17.109-4.693-35.712-6.912-55.040-6.912-13.44 0-27.008 0.768-39.723 3.584 27.179-83.115 104.405-144.256 196.139-146.261-71.424-55.851-162.133-89.515-260.309-89.515-17.195 0-33.707 0.768-50.219 2.859 93.013-59.947 203.179-94.208 322.048-94.208 370.475 0 611.925 309.077 596.736 624.512z" />
<glyph unicode="&#xe933;" glyph-name="viber" d="M987.947 367.232c30.549 257.152-14.677 419.499-96.256 492.928l0.043 0.043c-131.669 125.397-576.341 143.957-733.867-5.632-70.741-73.173-95.659-180.565-98.389-313.515-2.731-132.992-5.973-382.123 226.176-449.707h0.213l-0.213-103.211s-1.579-41.813 25.131-50.219c30.549-9.899 44.373 9.515 139.392 123.008 158.891-13.781 280.917 17.792 294.784 22.4 32.085 10.752 213.632 34.773 242.987 283.904zM465.835 133.547s-100.565-125.397-131.84-157.952c-10.24-10.581-21.461-9.6-21.291 11.392 0 13.781 0.768 171.349 0.768 171.349-196.821 56.405-185.216 268.544-183.083 379.52 2.133 111.019 22.443 201.941 82.347 263.168 138.197 129.579 528.043 100.608 627.371 7.253 121.429-107.648 78.208-411.776 78.464-422.144-24.96-207.957-172.075-221.141-199.125-230.144-11.563-3.84-118.869-31.445-253.611-22.443zM521.472 776.661c-16.427 0-16.427-25.6 0-25.813 127.445-0.981 232.405-89.813 233.557-252.757 0-17.195 25.173-16.981 24.96 0.213h-0.043c-1.365 175.573-115.968 277.376-258.475 278.357zM689.109 525.099c-0.384-16.981 24.747-17.792 24.96-0.597 2.091 96.811-57.6 176.555-169.771 184.96-16.427 1.195-18.133-24.619-1.749-25.813 97.28-7.381 148.523-73.771 146.56-158.549zM662.229 414.976c-21.077 12.203-42.539 4.608-51.413-7.381l-18.56-24.021c-9.429-12.203-27.051-10.581-27.051-10.581-128.597 34.005-162.987 168.576-162.987 168.576s-1.579 18.219 10.197 27.989l23.211 19.2c11.605 9.216 18.944 31.403 7.125 53.205-31.573 57.045-52.779 76.715-63.573 91.819-11.349 14.208-28.416 17.408-46.165 7.808h-0.384c-36.907-21.589-77.312-61.995-64.384-103.595 22.059-43.861 62.592-183.68 191.787-289.323 60.715-49.963 156.8-101.163 197.589-112.981l0.384-0.597c40.192-13.397 79.275 28.587 100.139 66.603v0.299c9.259 18.389 6.187 35.797-7.339 47.189-23.979 23.381-60.16 49.195-88.576 65.792zM561.877 614.229c41.003-2.389 60.885-23.808 63.019-67.797 0.768-17.195 25.728-16 24.96 1.195-2.731 57.429-32.683 89.429-86.613 92.416-16.427 0.981-17.963-24.832-1.365-25.813z" />
<glyph unicode="&#xe934;" glyph-name="vk" d="M849.707 404.139c-16.555 20.907-11.819 30.208 0 48.896 0.213 0.213 136.875 189.056 150.955 253.099l0.085 0.043c6.997 23.339 0 40.491-33.835 40.491h-111.957c-28.501 0-41.643-14.72-48.683-31.189 0 0-57.003-136.448-137.643-224.896-26.027-25.557-38.059-33.749-52.267-33.749-6.997 0-17.877 8.192-17.877 31.531v217.813c0 27.989-7.979 40.491-31.573 40.491h-176.043c-17.877 0-28.501-13.056-28.501-25.216 0-26.539 40.32-32.64 44.501-107.307v-162.005c0-35.499-6.443-42.027-20.736-42.027-38.059 0-130.432 137.003-185.173 293.803-11.051 30.421-21.845 42.709-50.56 42.709h-112c-31.957 0-38.4-14.72-38.4-31.189 0-29.099 38.059-173.781 176.981-364.928 92.587-130.475 222.976-201.173 341.589-201.173 71.296 0 80 15.701 80 42.709 0 124.672-6.443 136.448 29.269 136.448 16.555 0 45.056-8.192 111.616-71.125 76.075-74.624 88.576-108.032 131.157-108.032h111.957c31.915 0 48.085 15.701 38.784 46.677-21.291 65.152-165.163 199.168-171.648 208.128z" />
<glyph unicode="&#xe935;" glyph-name="whatsapp" d="M746.965 349.568l-0.384-3.2c-93.824 46.763-103.637 52.992-115.755 34.816-8.405-12.587-32.896-41.131-40.277-49.579-7.467-8.32-14.891-8.96-27.563-3.2-12.8 6.4-53.888 19.84-102.528 63.36-37.888 33.92-63.317 75.52-70.827 88.32-12.501 21.589 13.653 24.661 37.461 69.717 4.267 8.96 2.091 16-1.067 22.357-3.2 6.4-28.672 69.12-39.339 94.123-10.24 24.917-20.779 21.76-28.672 21.76-24.576 2.133-42.539 1.792-58.368-14.677-68.864-75.691-51.499-153.771 7.424-236.8 115.797-151.552 177.493-179.456 290.304-218.197 30.464-9.685 58.24-8.32 80.213-5.163 24.491 3.883 75.392 30.763 86.016 60.843 10.88 30.080 10.88 55.040 7.68 60.8-3.157 5.76-11.52 8.96-24.32 14.72zM875.52 812.843c-328.064 317.141-870.997 87.125-871.211-360.277 0-89.429 23.424-176.64 68.053-253.653l-72.363-262.912 270.293 70.485c337.28-182.187 753.536 59.733 753.707 445.824 0 135.509-52.907 263.040-149.12 358.869zM938.752 453.717c-0.256-325.675-357.76-529.067-640.512-362.837l-15.36 9.131-160-41.6 42.88 155.52-10.197 16c-175.957 280.107 26.197 646.187 359.509 646.187 113.237 0 219.52-44.16 299.563-124.16 80-79.317 124.117-185.6 124.117-298.24z" />
<glyph unicode="&#xe936;" glyph-name="youtube" d="M1001.344 707.029l1.28-8.363c-12.373 43.904-45.781 77.781-88.235 90.112l-0.896 0.213c-79.829 21.675-401.067 21.675-401.067 21.675s-320.427 0.427-401.067-21.675c-43.264-12.544-76.715-46.421-88.875-89.429l-0.213-0.896c-29.824-155.776-30.037-342.955 1.323-509.739l-1.323 8.448c12.373-43.904 45.781-77.781 88.235-90.112l0.896-0.213c79.744-21.717 401.067-21.717 401.067-21.717s320.384 0 401.067 21.717c43.307 12.544 76.757 46.421 88.917 89.429l0.213 0.896c13.568 72.448 21.333 155.819 21.333 240.981 0 3.115 0 6.272-0.043 9.429 0.043 2.901 0.043 6.357 0.043 9.813 0 85.205-7.765 168.576-22.656 249.429zM409.941 292.224v311.168l267.349-155.819z" />
</font>
</defs>
</svg>
